# torus.obj - honya-game-engine Day 10 用のテストモデル
# 手続き生成(主半径 1.00 / 管半径 0.40 / 分割 32 x 16)
# 面の巻き方向は「外から見て反時計回り」(Day 9 の要点6でそろえた規約)

v 1.400000 0.000000 0.000000
v 1.369552 0.153073 0.000000
v 1.282843 0.282843 0.000000
v 1.153073 0.369552 0.000000
v 1.000000 0.400000 0.000000
v 0.846927 0.369552 0.000000
v 0.717157 0.282843 0.000000
v 0.630448 0.153073 0.000000
v 0.600000 0.000000 0.000000
v 0.630448 -0.153073 0.000000
v 0.717157 -0.282843 0.000000
v 0.846927 -0.369552 0.000000
v 1.000000 -0.400000 0.000000
v 1.153073 -0.369552 0.000000
v 1.282843 -0.282843 0.000000
v 1.369552 -0.153073 0.000000
v 1.400000 -0.000000 0.000000
v 1.373099 0.000000 0.273126
v 1.343236 0.153073 0.267186
v 1.258193 0.282843 0.250270
v 1.130917 0.369552 0.224953
v 0.980785 0.400000 0.195090
v 0.830653 0.369552 0.165227
v 0.703377 0.282843 0.139910
v 0.618334 0.153073 0.122994
v 0.588471 0.000000 0.117054
v 0.618334 -0.153073 0.122994
v 0.703377 -0.282843 0.139910
v 0.830653 -0.369552 0.165227
v 0.980785 -0.400000 0.195090
v 1.130917 -0.369552 0.224953
v 1.258193 -0.282843 0.250270
v 1.343236 -0.153073 0.267186
v 1.373099 -0.000000 0.273126
v 1.293431 0.000000 0.535757
v 1.265301 0.153073 0.524105
v 1.185192 0.282843 0.490923
v 1.065301 0.369552 0.441262
v 0.923880 0.400000 0.382683
v 0.782458 0.369552 0.324105
v 0.662567 0.282843 0.274444
v 0.582458 0.153073 0.241262
v 0.554328 0.000000 0.229610
v 0.582458 -0.153073 0.241262
v 0.662567 -0.282843 0.274444
v 0.782458 -0.369552 0.324105
v 0.923880 -0.400000 0.382683
v 1.065301 -0.369552 0.441262
v 1.185192 -0.282843 0.490923
v 1.265301 -0.153073 0.524105
v 1.293431 -0.000000 0.535757
v 1.164057 0.000000 0.777798
v 1.138741 0.153073 0.760882
v 1.066645 0.282843 0.712709
v 0.958745 0.369552 0.640613
v 0.831470 0.400000 0.555570
v 0.704194 0.369552 0.470527
v 0.596294 0.282843 0.398431
v 0.524199 0.153073 0.350258
v 0.498882 0.000000 0.333342
v 0.524199 -0.153073 0.350258
v 0.596294 -0.282843 0.398431
v 0.704194 -0.369552 0.470527
v 0.831470 -0.400000 0.555570
v 0.958745 -0.369552 0.640613
v 1.066645 -0.282843 0.712709
v 1.138741 -0.153073 0.760882
v 1.164057 -0.000000 0.777798
v 0.989949 0.000000 0.989949
v 0.968419 0.153073 0.968419
v 0.907107 0.282843 0.907107
v 0.815346 0.369552 0.815346
v 0.707107 0.400000 0.707107
v 0.598868 0.369552 0.598868
v 0.507107 0.282843 0.507107
v 0.445794 0.153073 0.445794
v 0.424264 0.000000 0.424264
v 0.445794 -0.153073 0.445794
v 0.507107 -0.282843 0.507107
v 0.598868 -0.369552 0.598868
v 0.707107 -0.400000 0.707107
v 0.815346 -0.369552 0.815346
v 0.907107 -0.282843 0.907107
v 0.968419 -0.153073 0.968419
v 0.989949 -0.000000 0.989949
v 0.777798 0.000000 1.164057
v 0.760882 0.153073 1.138741
v 0.712709 0.282843 1.066645
v 0.640613 0.369552 0.958745
v 0.555570 0.400000 0.831470
v 0.470527 0.369552 0.704194
v 0.398431 0.282843 0.596294
v 0.350258 0.153073 0.524199
v 0.333342 0.000000 0.498882
v 0.350258 -0.153073 0.524199
v 0.398431 -0.282843 0.596294
v 0.470527 -0.369552 0.704194
v 0.555570 -0.400000 0.831470
v 0.640613 -0.369552 0.958745
v 0.712709 -0.282843 1.066645
v 0.760882 -0.153073 1.138741
v 0.777798 -0.000000 1.164057
v 0.535757 0.000000 1.293431
v 0.524105 0.153073 1.265301
v 0.490923 0.282843 1.185192
v 0.441262 0.369552 1.065301
v 0.382683 0.400000 0.923880
v 0.324105 0.369552 0.782458
v 0.274444 0.282843 0.662567
v 0.241262 0.153073 0.582458
v 0.229610 0.000000 0.554328
v 0.241262 -0.153073 0.582458
v 0.274444 -0.282843 0.662567
v 0.324105 -0.369552 0.782458
v 0.382683 -0.400000 0.923880
v 0.441262 -0.369552 1.065301
v 0.490923 -0.282843 1.185192
v 0.524105 -0.153073 1.265301
v 0.535757 -0.000000 1.293431
v 0.273126 0.000000 1.373099
v 0.267186 0.153073 1.343236
v 0.250270 0.282843 1.258193
v 0.224953 0.369552 1.130917
v 0.195090 0.400000 0.980785
v 0.165227 0.369552 0.830653
v 0.139910 0.282843 0.703377
v 0.122994 0.153073 0.618334
v 0.117054 0.000000 0.588471
v 0.122994 -0.153073 0.618334
v 0.139910 -0.282843 0.703377
v 0.165227 -0.369552 0.830653
v 0.195090 -0.400000 0.980785
v 0.224953 -0.369552 1.130917
v 0.250270 -0.282843 1.258193
v 0.267186 -0.153073 1.343236
v 0.273126 -0.000000 1.373099
v 0.000000 0.000000 1.400000
v 0.000000 0.153073 1.369552
v 0.000000 0.282843 1.282843
v 0.000000 0.369552 1.153073
v 0.000000 0.400000 1.000000
v 0.000000 0.369552 0.846927
v 0.000000 0.282843 0.717157
v 0.000000 0.153073 0.630448
v 0.000000 0.000000 0.600000
v 0.000000 -0.153073 0.630448
v 0.000000 -0.282843 0.717157
v 0.000000 -0.369552 0.846927
v 0.000000 -0.400000 1.000000
v 0.000000 -0.369552 1.153073
v 0.000000 -0.282843 1.282843
v 0.000000 -0.153073 1.369552
v 0.000000 -0.000000 1.400000
v -0.273126 0.000000 1.373099
v -0.267186 0.153073 1.343236
v -0.250270 0.282843 1.258193
v -0.224953 0.369552 1.130917
v -0.195090 0.400000 0.980785
v -0.165227 0.369552 0.830653
v -0.139910 0.282843 0.703377
v -0.122994 0.153073 0.618334
v -0.117054 0.000000 0.588471
v -0.122994 -0.153073 0.618334
v -0.139910 -0.282843 0.703377
v -0.165227 -0.369552 0.830653
v -0.195090 -0.400000 0.980785
v -0.224953 -0.369552 1.130917
v -0.250270 -0.282843 1.258193
v -0.267186 -0.153073 1.343236
v -0.273126 -0.000000 1.373099
v -0.535757 0.000000 1.293431
v -0.524105 0.153073 1.265301
v -0.490923 0.282843 1.185192
v -0.441262 0.369552 1.065301
v -0.382683 0.400000 0.923880
v -0.324105 0.369552 0.782458
v -0.274444 0.282843 0.662567
v -0.241262 0.153073 0.582458
v -0.229610 0.000000 0.554328
v -0.241262 -0.153073 0.582458
v -0.274444 -0.282843 0.662567
v -0.324105 -0.369552 0.782458
v -0.382683 -0.400000 0.923880
v -0.441262 -0.369552 1.065301
v -0.490923 -0.282843 1.185192
v -0.524105 -0.153073 1.265301
v -0.535757 -0.000000 1.293431
v -0.777798 0.000000 1.164057
v -0.760882 0.153073 1.138741
v -0.712709 0.282843 1.066645
v -0.640613 0.369552 0.958745
v -0.555570 0.400000 0.831470
v -0.470527 0.369552 0.704194
v -0.398431 0.282843 0.596294
v -0.350258 0.153073 0.524199
v -0.333342 0.000000 0.498882
v -0.350258 -0.153073 0.524199
v -0.398431 -0.282843 0.596294
v -0.470527 -0.369552 0.704194
v -0.555570 -0.400000 0.831470
v -0.640613 -0.369552 0.958745
v -0.712709 -0.282843 1.066645
v -0.760882 -0.153073 1.138741
v -0.777798 -0.000000 1.164057
v -0.989949 0.000000 0.989949
v -0.968419 0.153073 0.968419
v -0.907107 0.282843 0.907107
v -0.815346 0.369552 0.815346
v -0.707107 0.400000 0.707107
v -0.598868 0.369552 0.598868
v -0.507107 0.282843 0.507107
v -0.445794 0.153073 0.445794
v -0.424264 0.000000 0.424264
v -0.445794 -0.153073 0.445794
v -0.507107 -0.282843 0.507107
v -0.598868 -0.369552 0.598868
v -0.707107 -0.400000 0.707107
v -0.815346 -0.369552 0.815346
v -0.907107 -0.282843 0.907107
v -0.968419 -0.153073 0.968419
v -0.989949 -0.000000 0.989949
v -1.164057 0.000000 0.777798
v -1.138741 0.153073 0.760882
v -1.066645 0.282843 0.712709
v -0.958745 0.369552 0.640613
v -0.831470 0.400000 0.555570
v -0.704194 0.369552 0.470527
v -0.596294 0.282843 0.398431
v -0.524199 0.153073 0.350258
v -0.498882 0.000000 0.333342
v -0.524199 -0.153073 0.350258
v -0.596294 -0.282843 0.398431
v -0.704194 -0.369552 0.470527
v -0.831470 -0.400000 0.555570
v -0.958745 -0.369552 0.640613
v -1.066645 -0.282843 0.712709
v -1.138741 -0.153073 0.760882
v -1.164057 -0.000000 0.777798
v -1.293431 0.000000 0.535757
v -1.265301 0.153073 0.524105
v -1.185192 0.282843 0.490923
v -1.065301 0.369552 0.441262
v -0.923880 0.400000 0.382683
v -0.782458 0.369552 0.324105
v -0.662567 0.282843 0.274444
v -0.582458 0.153073 0.241262
v -0.554328 0.000000 0.229610
v -0.582458 -0.153073 0.241262
v -0.662567 -0.282843 0.274444
v -0.782458 -0.369552 0.324105
v -0.923880 -0.400000 0.382683
v -1.065301 -0.369552 0.441262
v -1.185192 -0.282843 0.490923
v -1.265301 -0.153073 0.524105
v -1.293431 -0.000000 0.535757
v -1.373099 0.000000 0.273126
v -1.343236 0.153073 0.267186
v -1.258193 0.282843 0.250270
v -1.130917 0.369552 0.224953
v -0.980785 0.400000 0.195090
v -0.830653 0.369552 0.165227
v -0.703377 0.282843 0.139910
v -0.618334 0.153073 0.122994
v -0.588471 0.000000 0.117054
v -0.618334 -0.153073 0.122994
v -0.703377 -0.282843 0.139910
v -0.830653 -0.369552 0.165227
v -0.980785 -0.400000 0.195090
v -1.130917 -0.369552 0.224953
v -1.258193 -0.282843 0.250270
v -1.343236 -0.153073 0.267186
v -1.373099 -0.000000 0.273126
v -1.400000 0.000000 0.000000
v -1.369552 0.153073 0.000000
v -1.282843 0.282843 0.000000
v -1.153073 0.369552 0.000000
v -1.000000 0.400000 0.000000
v -0.846927 0.369552 0.000000
v -0.717157 0.282843 0.000000
v -0.630448 0.153073 0.000000
v -0.600000 0.000000 0.000000
v -0.630448 -0.153073 0.000000
v -0.717157 -0.282843 0.000000
v -0.846927 -0.369552 0.000000
v -1.000000 -0.400000 0.000000
v -1.153073 -0.369552 0.000000
v -1.282843 -0.282843 0.000000
v -1.369552 -0.153073 0.000000
v -1.400000 -0.000000 0.000000
v -1.373099 0.000000 -0.273126
v -1.343236 0.153073 -0.267186
v -1.258193 0.282843 -0.250270
v -1.130917 0.369552 -0.224953
v -0.980785 0.400000 -0.195090
v -0.830653 0.369552 -0.165227
v -0.703377 0.282843 -0.139910
v -0.618334 0.153073 -0.122994
v -0.588471 0.000000 -0.117054
v -0.618334 -0.153073 -0.122994
v -0.703377 -0.282843 -0.139910
v -0.830653 -0.369552 -0.165227
v -0.980785 -0.400000 -0.195090
v -1.130917 -0.369552 -0.224953
v -1.258193 -0.282843 -0.250270
v -1.343236 -0.153073 -0.267186
v -1.373099 -0.000000 -0.273126
v -1.293431 0.000000 -0.535757
v -1.265301 0.153073 -0.524105
v -1.185192 0.282843 -0.490923
v -1.065301 0.369552 -0.441262
v -0.923880 0.400000 -0.382683
v -0.782458 0.369552 -0.324105
v -0.662567 0.282843 -0.274444
v -0.582458 0.153073 -0.241262
v -0.554328 0.000000 -0.229610
v -0.582458 -0.153073 -0.241262
v -0.662567 -0.282843 -0.274444
v -0.782458 -0.369552 -0.324105
v -0.923880 -0.400000 -0.382683
v -1.065301 -0.369552 -0.441262
v -1.185192 -0.282843 -0.490923
v -1.265301 -0.153073 -0.524105
v -1.293431 -0.000000 -0.535757
v -1.164057 0.000000 -0.777798
v -1.138741 0.153073 -0.760882
v -1.066645 0.282843 -0.712709
v -0.958745 0.369552 -0.640613
v -0.831470 0.400000 -0.555570
v -0.704194 0.369552 -0.470527
v -0.596294 0.282843 -0.398431
v -0.524199 0.153073 -0.350258
v -0.498882 0.000000 -0.333342
v -0.524199 -0.153073 -0.350258
v -0.596294 -0.282843 -0.398431
v -0.704194 -0.369552 -0.470527
v -0.831470 -0.400000 -0.555570
v -0.958745 -0.369552 -0.640613
v -1.066645 -0.282843 -0.712709
v -1.138741 -0.153073 -0.760882
v -1.164057 -0.000000 -0.777798
v -0.989949 0.000000 -0.989949
v -0.968419 0.153073 -0.968419
v -0.907107 0.282843 -0.907107
v -0.815346 0.369552 -0.815346
v -0.707107 0.400000 -0.707107
v -0.598868 0.369552 -0.598868
v -0.507107 0.282843 -0.507107
v -0.445794 0.153073 -0.445794
v -0.424264 0.000000 -0.424264
v -0.445794 -0.153073 -0.445794
v -0.507107 -0.282843 -0.507107
v -0.598868 -0.369552 -0.598868
v -0.707107 -0.400000 -0.707107
v -0.815346 -0.369552 -0.815346
v -0.907107 -0.282843 -0.907107
v -0.968419 -0.153073 -0.968419
v -0.989949 -0.000000 -0.989949
v -0.777798 0.000000 -1.164057
v -0.760882 0.153073 -1.138741
v -0.712709 0.282843 -1.066645
v -0.640613 0.369552 -0.958745
v -0.555570 0.400000 -0.831470
v -0.470527 0.369552 -0.704194
v -0.398431 0.282843 -0.596294
v -0.350258 0.153073 -0.524199
v -0.333342 0.000000 -0.498882
v -0.350258 -0.153073 -0.524199
v -0.398431 -0.282843 -0.596294
v -0.470527 -0.369552 -0.704194
v -0.555570 -0.400000 -0.831470
v -0.640613 -0.369552 -0.958745
v -0.712709 -0.282843 -1.066645
v -0.760882 -0.153073 -1.138741
v -0.777798 -0.000000 -1.164057
v -0.535757 0.000000 -1.293431
v -0.524105 0.153073 -1.265301
v -0.490923 0.282843 -1.185192
v -0.441262 0.369552 -1.065301
v -0.382683 0.400000 -0.923880
v -0.324105 0.369552 -0.782458
v -0.274444 0.282843 -0.662567
v -0.241262 0.153073 -0.582458
v -0.229610 0.000000 -0.554328
v -0.241262 -0.153073 -0.582458
v -0.274444 -0.282843 -0.662567
v -0.324105 -0.369552 -0.782458
v -0.382683 -0.400000 -0.923880
v -0.441262 -0.369552 -1.065301
v -0.490923 -0.282843 -1.185192
v -0.524105 -0.153073 -1.265301
v -0.535757 -0.000000 -1.293431
v -0.273126 0.000000 -1.373099
v -0.267186 0.153073 -1.343236
v -0.250270 0.282843 -1.258193
v -0.224953 0.369552 -1.130917
v -0.195090 0.400000 -0.980785
v -0.165227 0.369552 -0.830653
v -0.139910 0.282843 -0.703377
v -0.122994 0.153073 -0.618334
v -0.117054 0.000000 -0.588471
v -0.122994 -0.153073 -0.618334
v -0.139910 -0.282843 -0.703377
v -0.165227 -0.369552 -0.830653
v -0.195090 -0.400000 -0.980785
v -0.224953 -0.369552 -1.130917
v -0.250270 -0.282843 -1.258193
v -0.267186 -0.153073 -1.343236
v -0.273126 -0.000000 -1.373099
v -0.000000 0.000000 -1.400000
v -0.000000 0.153073 -1.369552
v -0.000000 0.282843 -1.282843
v -0.000000 0.369552 -1.153073
v -0.000000 0.400000 -1.000000
v -0.000000 0.369552 -0.846927
v -0.000000 0.282843 -0.717157
v -0.000000 0.153073 -0.630448
v -0.000000 0.000000 -0.600000
v -0.000000 -0.153073 -0.630448
v -0.000000 -0.282843 -0.717157
v -0.000000 -0.369552 -0.846927
v -0.000000 -0.400000 -1.000000
v -0.000000 -0.369552 -1.153073
v -0.000000 -0.282843 -1.282843
v -0.000000 -0.153073 -1.369552
v -0.000000 -0.000000 -1.400000
v 0.273126 0.000000 -1.373099
v 0.267186 0.153073 -1.343236
v 0.250270 0.282843 -1.258193
v 0.224953 0.369552 -1.130917
v 0.195090 0.400000 -0.980785
v 0.165227 0.369552 -0.830653
v 0.139910 0.282843 -0.703377
v 0.122994 0.153073 -0.618334
v 0.117054 0.000000 -0.588471
v 0.122994 -0.153073 -0.618334
v 0.139910 -0.282843 -0.703377
v 0.165227 -0.369552 -0.830653
v 0.195090 -0.400000 -0.980785
v 0.224953 -0.369552 -1.130917
v 0.250270 -0.282843 -1.258193
v 0.267186 -0.153073 -1.343236
v 0.273126 -0.000000 -1.373099
v 0.535757 0.000000 -1.293431
v 0.524105 0.153073 -1.265301
v 0.490923 0.282843 -1.185192
v 0.441262 0.369552 -1.065301
v 0.382683 0.400000 -0.923880
v 0.324105 0.369552 -0.782458
v 0.274444 0.282843 -0.662567
v 0.241262 0.153073 -0.582458
v 0.229610 0.000000 -0.554328
v 0.241262 -0.153073 -0.582458
v 0.274444 -0.282843 -0.662567
v 0.324105 -0.369552 -0.782458
v 0.382683 -0.400000 -0.923880
v 0.441262 -0.369552 -1.065301
v 0.490923 -0.282843 -1.185192
v 0.524105 -0.153073 -1.265301
v 0.535757 -0.000000 -1.293431
v 0.777798 0.000000 -1.164057
v 0.760882 0.153073 -1.138741
v 0.712709 0.282843 -1.066645
v 0.640613 0.369552 -0.958745
v 0.555570 0.400000 -0.831470
v 0.470527 0.369552 -0.704194
v 0.398431 0.282843 -0.596294
v 0.350258 0.153073 -0.524199
v 0.333342 0.000000 -0.498882
v 0.350258 -0.153073 -0.524199
v 0.398431 -0.282843 -0.596294
v 0.470527 -0.369552 -0.704194
v 0.555570 -0.400000 -0.831470
v 0.640613 -0.369552 -0.958745
v 0.712709 -0.282843 -1.066645
v 0.760882 -0.153073 -1.138741
v 0.777798 -0.000000 -1.164057
v 0.989949 0.000000 -0.989949
v 0.968419 0.153073 -0.968419
v 0.907107 0.282843 -0.907107
v 0.815346 0.369552 -0.815346
v 0.707107 0.400000 -0.707107
v 0.598868 0.369552 -0.598868
v 0.507107 0.282843 -0.507107
v 0.445794 0.153073 -0.445794
v 0.424264 0.000000 -0.424264
v 0.445794 -0.153073 -0.445794
v 0.507107 -0.282843 -0.507107
v 0.598868 -0.369552 -0.598868
v 0.707107 -0.400000 -0.707107
v 0.815346 -0.369552 -0.815346
v 0.907107 -0.282843 -0.907107
v 0.968419 -0.153073 -0.968419
v 0.989949 -0.000000 -0.989949
v 1.164057 0.000000 -0.777798
v 1.138741 0.153073 -0.760882
v 1.066645 0.282843 -0.712709
v 0.958745 0.369552 -0.640613
v 0.831470 0.400000 -0.555570
v 0.704194 0.369552 -0.470527
v 0.596294 0.282843 -0.398431
v 0.524199 0.153073 -0.350258
v 0.498882 0.000000 -0.333342
v 0.524199 -0.153073 -0.350258
v 0.596294 -0.282843 -0.398431
v 0.704194 -0.369552 -0.470527
v 0.831470 -0.400000 -0.555570
v 0.958745 -0.369552 -0.640613
v 1.066645 -0.282843 -0.712709
v 1.138741 -0.153073 -0.760882
v 1.164057 -0.000000 -0.777798
v 1.293431 0.000000 -0.535757
v 1.265301 0.153073 -0.524105
v 1.185192 0.282843 -0.490923
v 1.065301 0.369552 -0.441262
v 0.923880 0.400000 -0.382683
v 0.782458 0.369552 -0.324105
v 0.662567 0.282843 -0.274444
v 0.582458 0.153073 -0.241262
v 0.554328 0.000000 -0.229610
v 0.582458 -0.153073 -0.241262
v 0.662567 -0.282843 -0.274444
v 0.782458 -0.369552 -0.324105
v 0.923880 -0.400000 -0.382683
v 1.065301 -0.369552 -0.441262
v 1.185192 -0.282843 -0.490923
v 1.265301 -0.153073 -0.524105
v 1.293431 -0.000000 -0.535757
v 1.373099 0.000000 -0.273126
v 1.343236 0.153073 -0.267186
v 1.258193 0.282843 -0.250270
v 1.130917 0.369552 -0.224953
v 0.980785 0.400000 -0.195090
v 0.830653 0.369552 -0.165227
v 0.703377 0.282843 -0.139910
v 0.618334 0.153073 -0.122994
v 0.588471 0.000000 -0.117054
v 0.618334 -0.153073 -0.122994
v 0.703377 -0.282843 -0.139910
v 0.830653 -0.369552 -0.165227
v 0.980785 -0.400000 -0.195090
v 1.130917 -0.369552 -0.224953
v 1.258193 -0.282843 -0.250270
v 1.343236 -0.153073 -0.267186
v 1.373099 -0.000000 -0.273126
v 1.400000 0.000000 -0.000000
v 1.369552 0.153073 -0.000000
v 1.282843 0.282843 -0.000000
v 1.153073 0.369552 -0.000000
v 1.000000 0.400000 -0.000000
v 0.846927 0.369552 -0.000000
v 0.717157 0.282843 -0.000000
v 0.630448 0.153073 -0.000000
v 0.600000 0.000000 -0.000000
v 0.630448 -0.153073 -0.000000
v 0.717157 -0.282843 -0.000000
v 0.846927 -0.369552 -0.000000
v 1.000000 -0.400000 -0.000000
v 1.153073 -0.369552 -0.000000
v 1.282843 -0.282843 -0.000000
v 1.369552 -0.153073 -0.000000
v 1.400000 -0.000000 -0.000000

vt 0.000000 0.000000
vt 0.000000 0.062500
vt 0.000000 0.125000
vt 0.000000 0.187500
vt 0.000000 0.250000
vt 0.000000 0.312500
vt 0.000000 0.375000
vt 0.000000 0.437500
vt 0.000000 0.500000
vt 0.000000 0.562500
vt 0.000000 0.625000
vt 0.000000 0.687500
vt 0.000000 0.750000
vt 0.000000 0.812500
vt 0.000000 0.875000
vt 0.000000 0.937500
vt 0.000000 1.000000
vt 0.125000 0.000000
vt 0.125000 0.062500
vt 0.125000 0.125000
vt 0.125000 0.187500
vt 0.125000 0.250000
vt 0.125000 0.312500
vt 0.125000 0.375000
vt 0.125000 0.437500
vt 0.125000 0.500000
vt 0.125000 0.562500
vt 0.125000 0.625000
vt 0.125000 0.687500
vt 0.125000 0.750000
vt 0.125000 0.812500
vt 0.125000 0.875000
vt 0.125000 0.937500
vt 0.125000 1.000000
vt 0.250000 0.000000
vt 0.250000 0.062500
vt 0.250000 0.125000
vt 0.250000 0.187500
vt 0.250000 0.250000
vt 0.250000 0.312500
vt 0.250000 0.375000
vt 0.250000 0.437500
vt 0.250000 0.500000
vt 0.250000 0.562500
vt 0.250000 0.625000
vt 0.250000 0.687500
vt 0.250000 0.750000
vt 0.250000 0.812500
vt 0.250000 0.875000
vt 0.250000 0.937500
vt 0.250000 1.000000
vt 0.375000 0.000000
vt 0.375000 0.062500
vt 0.375000 0.125000
vt 0.375000 0.187500
vt 0.375000 0.250000
vt 0.375000 0.312500
vt 0.375000 0.375000
vt 0.375000 0.437500
vt 0.375000 0.500000
vt 0.375000 0.562500
vt 0.375000 0.625000
vt 0.375000 0.687500
vt 0.375000 0.750000
vt 0.375000 0.812500
vt 0.375000 0.875000
vt 0.375000 0.937500
vt 0.375000 1.000000
vt 0.500000 0.000000
vt 0.500000 0.062500
vt 0.500000 0.125000
vt 0.500000 0.187500
vt 0.500000 0.250000
vt 0.500000 0.312500
vt 0.500000 0.375000
vt 0.500000 0.437500
vt 0.500000 0.500000
vt 0.500000 0.562500
vt 0.500000 0.625000
vt 0.500000 0.687500
vt 0.500000 0.750000
vt 0.500000 0.812500
vt 0.500000 0.875000
vt 0.500000 0.937500
vt 0.500000 1.000000
vt 0.625000 0.000000
vt 0.625000 0.062500
vt 0.625000 0.125000
vt 0.625000 0.187500
vt 0.625000 0.250000
vt 0.625000 0.312500
vt 0.625000 0.375000
vt 0.625000 0.437500
vt 0.625000 0.500000
vt 0.625000 0.562500
vt 0.625000 0.625000
vt 0.625000 0.687500
vt 0.625000 0.750000
vt 0.625000 0.812500
vt 0.625000 0.875000
vt 0.625000 0.937500
vt 0.625000 1.000000
vt 0.750000 0.000000
vt 0.750000 0.062500
vt 0.750000 0.125000
vt 0.750000 0.187500
vt 0.750000 0.250000
vt 0.750000 0.312500
vt 0.750000 0.375000
vt 0.750000 0.437500
vt 0.750000 0.500000
vt 0.750000 0.562500
vt 0.750000 0.625000
vt 0.750000 0.687500
vt 0.750000 0.750000
vt 0.750000 0.812500
vt 0.750000 0.875000
vt 0.750000 0.937500
vt 0.750000 1.000000
vt 0.875000 0.000000
vt 0.875000 0.062500
vt 0.875000 0.125000
vt 0.875000 0.187500
vt 0.875000 0.250000
vt 0.875000 0.312500
vt 0.875000 0.375000
vt 0.875000 0.437500
vt 0.875000 0.500000
vt 0.875000 0.562500
vt 0.875000 0.625000
vt 0.875000 0.687500
vt 0.875000 0.750000
vt 0.875000 0.812500
vt 0.875000 0.875000
vt 0.875000 0.937500
vt 0.875000 1.000000
vt 1.000000 0.000000
vt 1.000000 0.062500
vt 1.000000 0.125000
vt 1.000000 0.187500
vt 1.000000 0.250000
vt 1.000000 0.312500
vt 1.000000 0.375000
vt 1.000000 0.437500
vt 1.000000 0.500000
vt 1.000000 0.562500
vt 1.000000 0.625000
vt 1.000000 0.687500
vt 1.000000 0.750000
vt 1.000000 0.812500
vt 1.000000 0.875000
vt 1.000000 0.937500
vt 1.000000 1.000000
vt 1.125000 0.000000
vt 1.125000 0.062500
vt 1.125000 0.125000
vt 1.125000 0.187500
vt 1.125000 0.250000
vt 1.125000 0.312500
vt 1.125000 0.375000
vt 1.125000 0.437500
vt 1.125000 0.500000
vt 1.125000 0.562500
vt 1.125000 0.625000
vt 1.125000 0.687500
vt 1.125000 0.750000
vt 1.125000 0.812500
vt 1.125000 0.875000
vt 1.125000 0.937500
vt 1.125000 1.000000
vt 1.250000 0.000000
vt 1.250000 0.062500
vt 1.250000 0.125000
vt 1.250000 0.187500
vt 1.250000 0.250000
vt 1.250000 0.312500
vt 1.250000 0.375000
vt 1.250000 0.437500
vt 1.250000 0.500000
vt 1.250000 0.562500
vt 1.250000 0.625000
vt 1.250000 0.687500
vt 1.250000 0.750000
vt 1.250000 0.812500
vt 1.250000 0.875000
vt 1.250000 0.937500
vt 1.250000 1.000000
vt 1.375000 0.000000
vt 1.375000 0.062500
vt 1.375000 0.125000
vt 1.375000 0.187500
vt 1.375000 0.250000
vt 1.375000 0.312500
vt 1.375000 0.375000
vt 1.375000 0.437500
vt 1.375000 0.500000
vt 1.375000 0.562500
vt 1.375000 0.625000
vt 1.375000 0.687500
vt 1.375000 0.750000
vt 1.375000 0.812500
vt 1.375000 0.875000
vt 1.375000 0.937500
vt 1.375000 1.000000
vt 1.500000 0.000000
vt 1.500000 0.062500
vt 1.500000 0.125000
vt 1.500000 0.187500
vt 1.500000 0.250000
vt 1.500000 0.312500
vt 1.500000 0.375000
vt 1.500000 0.437500
vt 1.500000 0.500000
vt 1.500000 0.562500
vt 1.500000 0.625000
vt 1.500000 0.687500
vt 1.500000 0.750000
vt 1.500000 0.812500
vt 1.500000 0.875000
vt 1.500000 0.937500
vt 1.500000 1.000000
vt 1.625000 0.000000
vt 1.625000 0.062500
vt 1.625000 0.125000
vt 1.625000 0.187500
vt 1.625000 0.250000
vt 1.625000 0.312500
vt 1.625000 0.375000
vt 1.625000 0.437500
vt 1.625000 0.500000
vt 1.625000 0.562500
vt 1.625000 0.625000
vt 1.625000 0.687500
vt 1.625000 0.750000
vt 1.625000 0.812500
vt 1.625000 0.875000
vt 1.625000 0.937500
vt 1.625000 1.000000
vt 1.750000 0.000000
vt 1.750000 0.062500
vt 1.750000 0.125000
vt 1.750000 0.187500
vt 1.750000 0.250000
vt 1.750000 0.312500
vt 1.750000 0.375000
vt 1.750000 0.437500
vt 1.750000 0.500000
vt 1.750000 0.562500
vt 1.750000 0.625000
vt 1.750000 0.687500
vt 1.750000 0.750000
vt 1.750000 0.812500
vt 1.750000 0.875000
vt 1.750000 0.937500
vt 1.750000 1.000000
vt 1.875000 0.000000
vt 1.875000 0.062500
vt 1.875000 0.125000
vt 1.875000 0.187500
vt 1.875000 0.250000
vt 1.875000 0.312500
vt 1.875000 0.375000
vt 1.875000 0.437500
vt 1.875000 0.500000
vt 1.875000 0.562500
vt 1.875000 0.625000
vt 1.875000 0.687500
vt 1.875000 0.750000
vt 1.875000 0.812500
vt 1.875000 0.875000
vt 1.875000 0.937500
vt 1.875000 1.000000
vt 2.000000 0.000000
vt 2.000000 0.062500
vt 2.000000 0.125000
vt 2.000000 0.187500
vt 2.000000 0.250000
vt 2.000000 0.312500
vt 2.000000 0.375000
vt 2.000000 0.437500
vt 2.000000 0.500000
vt 2.000000 0.562500
vt 2.000000 0.625000
vt 2.000000 0.687500
vt 2.000000 0.750000
vt 2.000000 0.812500
vt 2.000000 0.875000
vt 2.000000 0.937500
vt 2.000000 1.000000
vt 2.125000 0.000000
vt 2.125000 0.062500
vt 2.125000 0.125000
vt 2.125000 0.187500
vt 2.125000 0.250000
vt 2.125000 0.312500
vt 2.125000 0.375000
vt 2.125000 0.437500
vt 2.125000 0.500000
vt 2.125000 0.562500
vt 2.125000 0.625000
vt 2.125000 0.687500
vt 2.125000 0.750000
vt 2.125000 0.812500
vt 2.125000 0.875000
vt 2.125000 0.937500
vt 2.125000 1.000000
vt 2.250000 0.000000
vt 2.250000 0.062500
vt 2.250000 0.125000
vt 2.250000 0.187500
vt 2.250000 0.250000
vt 2.250000 0.312500
vt 2.250000 0.375000
vt 2.250000 0.437500
vt 2.250000 0.500000
vt 2.250000 0.562500
vt 2.250000 0.625000
vt 2.250000 0.687500
vt 2.250000 0.750000
vt 2.250000 0.812500
vt 2.250000 0.875000
vt 2.250000 0.937500
vt 2.250000 1.000000
vt 2.375000 0.000000
vt 2.375000 0.062500
vt 2.375000 0.125000
vt 2.375000 0.187500
vt 2.375000 0.250000
vt 2.375000 0.312500
vt 2.375000 0.375000
vt 2.375000 0.437500
vt 2.375000 0.500000
vt 2.375000 0.562500
vt 2.375000 0.625000
vt 2.375000 0.687500
vt 2.375000 0.750000
vt 2.375000 0.812500
vt 2.375000 0.875000
vt 2.375000 0.937500
vt 2.375000 1.000000
vt 2.500000 0.000000
vt 2.500000 0.062500
vt 2.500000 0.125000
vt 2.500000 0.187500
vt 2.500000 0.250000
vt 2.500000 0.312500
vt 2.500000 0.375000
vt 2.500000 0.437500
vt 2.500000 0.500000
vt 2.500000 0.562500
vt 2.500000 0.625000
vt 2.500000 0.687500
vt 2.500000 0.750000
vt 2.500000 0.812500
vt 2.500000 0.875000
vt 2.500000 0.937500
vt 2.500000 1.000000
vt 2.625000 0.000000
vt 2.625000 0.062500
vt 2.625000 0.125000
vt 2.625000 0.187500
vt 2.625000 0.250000
vt 2.625000 0.312500
vt 2.625000 0.375000
vt 2.625000 0.437500
vt 2.625000 0.500000
vt 2.625000 0.562500
vt 2.625000 0.625000
vt 2.625000 0.687500
vt 2.625000 0.750000
vt 2.625000 0.812500
vt 2.625000 0.875000
vt 2.625000 0.937500
vt 2.625000 1.000000
vt 2.750000 0.000000
vt 2.750000 0.062500
vt 2.750000 0.125000
vt 2.750000 0.187500
vt 2.750000 0.250000
vt 2.750000 0.312500
vt 2.750000 0.375000
vt 2.750000 0.437500
vt 2.750000 0.500000
vt 2.750000 0.562500
vt 2.750000 0.625000
vt 2.750000 0.687500
vt 2.750000 0.750000
vt 2.750000 0.812500
vt 2.750000 0.875000
vt 2.750000 0.937500
vt 2.750000 1.000000
vt 2.875000 0.000000
vt 2.875000 0.062500
vt 2.875000 0.125000
vt 2.875000 0.187500
vt 2.875000 0.250000
vt 2.875000 0.312500
vt 2.875000 0.375000
vt 2.875000 0.437500
vt 2.875000 0.500000
vt 2.875000 0.562500
vt 2.875000 0.625000
vt 2.875000 0.687500
vt 2.875000 0.750000
vt 2.875000 0.812500
vt 2.875000 0.875000
vt 2.875000 0.937500
vt 2.875000 1.000000
vt 3.000000 0.000000
vt 3.000000 0.062500
vt 3.000000 0.125000
vt 3.000000 0.187500
vt 3.000000 0.250000
vt 3.000000 0.312500
vt 3.000000 0.375000
vt 3.000000 0.437500
vt 3.000000 0.500000
vt 3.000000 0.562500
vt 3.000000 0.625000
vt 3.000000 0.687500
vt 3.000000 0.750000
vt 3.000000 0.812500
vt 3.000000 0.875000
vt 3.000000 0.937500
vt 3.000000 1.000000
vt 3.125000 0.000000
vt 3.125000 0.062500
vt 3.125000 0.125000
vt 3.125000 0.187500
vt 3.125000 0.250000
vt 3.125000 0.312500
vt 3.125000 0.375000
vt 3.125000 0.437500
vt 3.125000 0.500000
vt 3.125000 0.562500
vt 3.125000 0.625000
vt 3.125000 0.687500
vt 3.125000 0.750000
vt 3.125000 0.812500
vt 3.125000 0.875000
vt 3.125000 0.937500
vt 3.125000 1.000000
vt 3.250000 0.000000
vt 3.250000 0.062500
vt 3.250000 0.125000
vt 3.250000 0.187500
vt 3.250000 0.250000
vt 3.250000 0.312500
vt 3.250000 0.375000
vt 3.250000 0.437500
vt 3.250000 0.500000
vt 3.250000 0.562500
vt 3.250000 0.625000
vt 3.250000 0.687500
vt 3.250000 0.750000
vt 3.250000 0.812500
vt 3.250000 0.875000
vt 3.250000 0.937500
vt 3.250000 1.000000
vt 3.375000 0.000000
vt 3.375000 0.062500
vt 3.375000 0.125000
vt 3.375000 0.187500
vt 3.375000 0.250000
vt 3.375000 0.312500
vt 3.375000 0.375000
vt 3.375000 0.437500
vt 3.375000 0.500000
vt 3.375000 0.562500
vt 3.375000 0.625000
vt 3.375000 0.687500
vt 3.375000 0.750000
vt 3.375000 0.812500
vt 3.375000 0.875000
vt 3.375000 0.937500
vt 3.375000 1.000000
vt 3.500000 0.000000
vt 3.500000 0.062500
vt 3.500000 0.125000
vt 3.500000 0.187500
vt 3.500000 0.250000
vt 3.500000 0.312500
vt 3.500000 0.375000
vt 3.500000 0.437500
vt 3.500000 0.500000
vt 3.500000 0.562500
vt 3.500000 0.625000
vt 3.500000 0.687500
vt 3.500000 0.750000
vt 3.500000 0.812500
vt 3.500000 0.875000
vt 3.500000 0.937500
vt 3.500000 1.000000
vt 3.625000 0.000000
vt 3.625000 0.062500
vt 3.625000 0.125000
vt 3.625000 0.187500
vt 3.625000 0.250000
vt 3.625000 0.312500
vt 3.625000 0.375000
vt 3.625000 0.437500
vt 3.625000 0.500000
vt 3.625000 0.562500
vt 3.625000 0.625000
vt 3.625000 0.687500
vt 3.625000 0.750000
vt 3.625000 0.812500
vt 3.625000 0.875000
vt 3.625000 0.937500
vt 3.625000 1.000000
vt 3.750000 0.000000
vt 3.750000 0.062500
vt 3.750000 0.125000
vt 3.750000 0.187500
vt 3.750000 0.250000
vt 3.750000 0.312500
vt 3.750000 0.375000
vt 3.750000 0.437500
vt 3.750000 0.500000
vt 3.750000 0.562500
vt 3.750000 0.625000
vt 3.750000 0.687500
vt 3.750000 0.750000
vt 3.750000 0.812500
vt 3.750000 0.875000
vt 3.750000 0.937500
vt 3.750000 1.000000
vt 3.875000 0.000000
vt 3.875000 0.062500
vt 3.875000 0.125000
vt 3.875000 0.187500
vt 3.875000 0.250000
vt 3.875000 0.312500
vt 3.875000 0.375000
vt 3.875000 0.437500
vt 3.875000 0.500000
vt 3.875000 0.562500
vt 3.875000 0.625000
vt 3.875000 0.687500
vt 3.875000 0.750000
vt 3.875000 0.812500
vt 3.875000 0.875000
vt 3.875000 0.937500
vt 3.875000 1.000000
vt 4.000000 0.000000
vt 4.000000 0.062500
vt 4.000000 0.125000
vt 4.000000 0.187500
vt 4.000000 0.250000
vt 4.000000 0.312500
vt 4.000000 0.375000
vt 4.000000 0.437500
vt 4.000000 0.500000
vt 4.000000 0.562500
vt 4.000000 0.625000
vt 4.000000 0.687500
vt 4.000000 0.750000
vt 4.000000 0.812500
vt 4.000000 0.875000
vt 4.000000 0.937500
vt 4.000000 1.000000

vn 1.000000 0.000000 0.000000
vn 0.923880 0.382683 0.000000
vn 0.707107 0.707107 0.000000
vn 0.382683 0.923880 0.000000
vn 0.000000 1.000000 0.000000
vn -0.382683 0.923880 -0.000000
vn -0.707107 0.707107 -0.000000
vn -0.923880 0.382683 -0.000000
vn -1.000000 0.000000 -0.000000
vn -0.923880 -0.382683 -0.000000
vn -0.707107 -0.707107 -0.000000
vn -0.382683 -0.923880 -0.000000
vn -0.000000 -1.000000 -0.000000
vn 0.382683 -0.923880 0.000000
vn 0.707107 -0.707107 0.000000
vn 0.923880 -0.382683 0.000000
vn 1.000000 -0.000000 0.000000
vn 0.980785 0.000000 0.195090
vn 0.906127 0.382683 0.180240
vn 0.693520 0.707107 0.137950
vn 0.375330 0.923880 0.074658
vn 0.000000 1.000000 0.000000
vn -0.375330 0.923880 -0.074658
vn -0.693520 0.707107 -0.137950
vn -0.906127 0.382683 -0.180240
vn -0.980785 0.000000 -0.195090
vn -0.906127 -0.382683 -0.180240
vn -0.693520 -0.707107 -0.137950
vn -0.375330 -0.923880 -0.074658
vn -0.000000 -1.000000 -0.000000
vn 0.375330 -0.923880 0.074658
vn 0.693520 -0.707107 0.137950
vn 0.906127 -0.382683 0.180240
vn 0.980785 -0.000000 0.195090
vn 0.923880 0.000000 0.382683
vn 0.853553 0.382683 0.353553
vn 0.653281 0.707107 0.270598
vn 0.353553 0.923880 0.146447
vn 0.000000 1.000000 0.000000
vn -0.353553 0.923880 -0.146447
vn -0.653281 0.707107 -0.270598
vn -0.853553 0.382683 -0.353553
vn -0.923880 0.000000 -0.382683
vn -0.853553 -0.382683 -0.353553
vn -0.653281 -0.707107 -0.270598
vn -0.353553 -0.923880 -0.146447
vn -0.000000 -1.000000 -0.000000
vn 0.353553 -0.923880 0.146447
vn 0.653281 -0.707107 0.270598
vn 0.853553 -0.382683 0.353553
vn 0.923880 -0.000000 0.382683
vn 0.831470 0.000000 0.555570
vn 0.768178 0.382683 0.513280
vn 0.587938 0.707107 0.392847
vn 0.318190 0.923880 0.212608
vn 0.000000 1.000000 0.000000
vn -0.318190 0.923880 -0.212608
vn -0.587938 0.707107 -0.392847
vn -0.768178 0.382683 -0.513280
vn -0.831470 0.000000 -0.555570
vn -0.768178 -0.382683 -0.513280
vn -0.587938 -0.707107 -0.392847
vn -0.318190 -0.923880 -0.212608
vn -0.000000 -1.000000 -0.000000
vn 0.318190 -0.923880 0.212608
vn 0.587938 -0.707107 0.392847
vn 0.768178 -0.382683 0.513280
vn 0.831470 -0.000000 0.555570
vn 0.707107 0.000000 0.707107
vn 0.653281 0.382683 0.653281
vn 0.500000 0.707107 0.500000
vn 0.270598 0.923880 0.270598
vn 0.000000 1.000000 0.000000
vn -0.270598 0.923880 -0.270598
vn -0.500000 0.707107 -0.500000
vn -0.653281 0.382683 -0.653281
vn -0.707107 0.000000 -0.707107
vn -0.653281 -0.382683 -0.653281
vn -0.500000 -0.707107 -0.500000
vn -0.270598 -0.923880 -0.270598
vn -0.000000 -1.000000 -0.000000
vn 0.270598 -0.923880 0.270598
vn 0.500000 -0.707107 0.500000
vn 0.653281 -0.382683 0.653281
vn 0.707107 -0.000000 0.707107
vn 0.555570 0.000000 0.831470
vn 0.513280 0.382683 0.768178
vn 0.392847 0.707107 0.587938
vn 0.212608 0.923880 0.318190
vn 0.000000 1.000000 0.000000
vn -0.212608 0.923880 -0.318190
vn -0.392847 0.707107 -0.587938
vn -0.513280 0.382683 -0.768178
vn -0.555570 0.000000 -0.831470
vn -0.513280 -0.382683 -0.768178
vn -0.392847 -0.707107 -0.587938
vn -0.212608 -0.923880 -0.318190
vn -0.000000 -1.000000 -0.000000
vn 0.212608 -0.923880 0.318190
vn 0.392847 -0.707107 0.587938
vn 0.513280 -0.382683 0.768178
vn 0.555570 -0.000000 0.831470
vn 0.382683 0.000000 0.923880
vn 0.353553 0.382683 0.853553
vn 0.270598 0.707107 0.653281
vn 0.146447 0.923880 0.353553
vn 0.000000 1.000000 0.000000
vn -0.146447 0.923880 -0.353553
vn -0.270598 0.707107 -0.653281
vn -0.353553 0.382683 -0.853553
vn -0.382683 0.000000 -0.923880
vn -0.353553 -0.382683 -0.853553
vn -0.270598 -0.707107 -0.653281
vn -0.146447 -0.923880 -0.353553
vn -0.000000 -1.000000 -0.000000
vn 0.146447 -0.923880 0.353553
vn 0.270598 -0.707107 0.653281
vn 0.353553 -0.382683 0.853553
vn 0.382683 -0.000000 0.923880
vn 0.195090 0.000000 0.980785
vn 0.180240 0.382683 0.906127
vn 0.137950 0.707107 0.693520
vn 0.074658 0.923880 0.375330
vn 0.000000 1.000000 0.000000
vn -0.074658 0.923880 -0.375330
vn -0.137950 0.707107 -0.693520
vn -0.180240 0.382683 -0.906127
vn -0.195090 0.000000 -0.980785
vn -0.180240 -0.382683 -0.906127
vn -0.137950 -0.707107 -0.693520
vn -0.074658 -0.923880 -0.375330
vn -0.000000 -1.000000 -0.000000
vn 0.074658 -0.923880 0.375330
vn 0.137950 -0.707107 0.693520
vn 0.180240 -0.382683 0.906127
vn 0.195090 -0.000000 0.980785
vn 0.000000 0.000000 1.000000
vn 0.000000 0.382683 0.923880
vn 0.000000 0.707107 0.707107
vn 0.000000 0.923880 0.382683
vn 0.000000 1.000000 0.000000
vn -0.000000 0.923880 -0.382683
vn -0.000000 0.707107 -0.707107
vn -0.000000 0.382683 -0.923880
vn -0.000000 0.000000 -1.000000
vn -0.000000 -0.382683 -0.923880
vn -0.000000 -0.707107 -0.707107
vn -0.000000 -0.923880 -0.382683
vn -0.000000 -1.000000 -0.000000
vn 0.000000 -0.923880 0.382683
vn 0.000000 -0.707107 0.707107
vn 0.000000 -0.382683 0.923880
vn 0.000000 -0.000000 1.000000
vn -0.195090 0.000000 0.980785
vn -0.180240 0.382683 0.906127
vn -0.137950 0.707107 0.693520
vn -0.074658 0.923880 0.375330
vn -0.000000 1.000000 0.000000
vn 0.074658 0.923880 -0.375330
vn 0.137950 0.707107 -0.693520
vn 0.180240 0.382683 -0.906127
vn 0.195090 0.000000 -0.980785
vn 0.180240 -0.382683 -0.906127
vn 0.137950 -0.707107 -0.693520
vn 0.074658 -0.923880 -0.375330
vn 0.000000 -1.000000 -0.000000
vn -0.074658 -0.923880 0.375330
vn -0.137950 -0.707107 0.693520
vn -0.180240 -0.382683 0.906127
vn -0.195090 -0.000000 0.980785
vn -0.382683 0.000000 0.923880
vn -0.353553 0.382683 0.853553
vn -0.270598 0.707107 0.653281
vn -0.146447 0.923880 0.353553
vn -0.000000 1.000000 0.000000
vn 0.146447 0.923880 -0.353553
vn 0.270598 0.707107 -0.653281
vn 0.353553 0.382683 -0.853553
vn 0.382683 0.000000 -0.923880
vn 0.353553 -0.382683 -0.853553
vn 0.270598 -0.707107 -0.653281
vn 0.146447 -0.923880 -0.353553
vn 0.000000 -1.000000 -0.000000
vn -0.146447 -0.923880 0.353553
vn -0.270598 -0.707107 0.653281
vn -0.353553 -0.382683 0.853553
vn -0.382683 -0.000000 0.923880
vn -0.555570 0.000000 0.831470
vn -0.513280 0.382683 0.768178
vn -0.392847 0.707107 0.587938
vn -0.212608 0.923880 0.318190
vn -0.000000 1.000000 0.000000
vn 0.212608 0.923880 -0.318190
vn 0.392847 0.707107 -0.587938
vn 0.513280 0.382683 -0.768178
vn 0.555570 0.000000 -0.831470
vn 0.513280 -0.382683 -0.768178
vn 0.392847 -0.707107 -0.587938
vn 0.212608 -0.923880 -0.318190
vn 0.000000 -1.000000 -0.000000
vn -0.212608 -0.923880 0.318190
vn -0.392847 -0.707107 0.587938
vn -0.513280 -0.382683 0.768178
vn -0.555570 -0.000000 0.831470
vn -0.707107 0.000000 0.707107
vn -0.653281 0.382683 0.653281
vn -0.500000 0.707107 0.500000
vn -0.270598 0.923880 0.270598
vn -0.000000 1.000000 0.000000
vn 0.270598 0.923880 -0.270598
vn 0.500000 0.707107 -0.500000
vn 0.653281 0.382683 -0.653281
vn 0.707107 0.000000 -0.707107
vn 0.653281 -0.382683 -0.653281
vn 0.500000 -0.707107 -0.500000
vn 0.270598 -0.923880 -0.270598
vn 0.000000 -1.000000 -0.000000
vn -0.270598 -0.923880 0.270598
vn -0.500000 -0.707107 0.500000
vn -0.653281 -0.382683 0.653281
vn -0.707107 -0.000000 0.707107
vn -0.831470 0.000000 0.555570
vn -0.768178 0.382683 0.513280
vn -0.587938 0.707107 0.392847
vn -0.318190 0.923880 0.212608
vn -0.000000 1.000000 0.000000
vn 0.318190 0.923880 -0.212608
vn 0.587938 0.707107 -0.392847
vn 0.768178 0.382683 -0.513280
vn 0.831470 0.000000 -0.555570
vn 0.768178 -0.382683 -0.513280
vn 0.587938 -0.707107 -0.392847
vn 0.318190 -0.923880 -0.212608
vn 0.000000 -1.000000 -0.000000
vn -0.318190 -0.923880 0.212608
vn -0.587938 -0.707107 0.392847
vn -0.768178 -0.382683 0.513280
vn -0.831470 -0.000000 0.555570
vn -0.923880 0.000000 0.382683
vn -0.853553 0.382683 0.353553
vn -0.653281 0.707107 0.270598
vn -0.353553 0.923880 0.146447
vn -0.000000 1.000000 0.000000
vn 0.353553 0.923880 -0.146447
vn 0.653281 0.707107 -0.270598
vn 0.853553 0.382683 -0.353553
vn 0.923880 0.000000 -0.382683
vn 0.853553 -0.382683 -0.353553
vn 0.653281 -0.707107 -0.270598
vn 0.353553 -0.923880 -0.146447
vn 0.000000 -1.000000 -0.000000
vn -0.353553 -0.923880 0.146447
vn -0.653281 -0.707107 0.270598
vn -0.853553 -0.382683 0.353553
vn -0.923880 -0.000000 0.382683
vn -0.980785 0.000000 0.195090
vn -0.906127 0.382683 0.180240
vn -0.693520 0.707107 0.137950
vn -0.375330 0.923880 0.074658
vn -0.000000 1.000000 0.000000
vn 0.375330 0.923880 -0.074658
vn 0.693520 0.707107 -0.137950
vn 0.906127 0.382683 -0.180240
vn 0.980785 0.000000 -0.195090
vn 0.906127 -0.382683 -0.180240
vn 0.693520 -0.707107 -0.137950
vn 0.375330 -0.923880 -0.074658
vn 0.000000 -1.000000 -0.000000
vn -0.375330 -0.923880 0.074658
vn -0.693520 -0.707107 0.137950
vn -0.906127 -0.382683 0.180240
vn -0.980785 -0.000000 0.195090
vn -1.000000 0.000000 0.000000
vn -0.923880 0.382683 0.000000
vn -0.707107 0.707107 0.000000
vn -0.382683 0.923880 0.000000
vn -0.000000 1.000000 0.000000
vn 0.382683 0.923880 -0.000000
vn 0.707107 0.707107 -0.000000
vn 0.923880 0.382683 -0.000000
vn 1.000000 0.000000 -0.000000
vn 0.923880 -0.382683 -0.000000
vn 0.707107 -0.707107 -0.000000
vn 0.382683 -0.923880 -0.000000
vn 0.000000 -1.000000 -0.000000
vn -0.382683 -0.923880 0.000000
vn -0.707107 -0.707107 0.000000
vn -0.923880 -0.382683 0.000000
vn -1.000000 -0.000000 0.000000
vn -0.980785 0.000000 -0.195090
vn -0.906127 0.382683 -0.180240
vn -0.693520 0.707107 -0.137950
vn -0.375330 0.923880 -0.074658
vn -0.000000 1.000000 -0.000000
vn 0.375330 0.923880 0.074658
vn 0.693520 0.707107 0.137950
vn 0.906127 0.382683 0.180240
vn 0.980785 0.000000 0.195090
vn 0.906127 -0.382683 0.180240
vn 0.693520 -0.707107 0.137950
vn 0.375330 -0.923880 0.074658
vn 0.000000 -1.000000 0.000000
vn -0.375330 -0.923880 -0.074658
vn -0.693520 -0.707107 -0.137950
vn -0.906127 -0.382683 -0.180240
vn -0.980785 -0.000000 -0.195090
vn -0.923880 0.000000 -0.382683
vn -0.853553 0.382683 -0.353553
vn -0.653281 0.707107 -0.270598
vn -0.353553 0.923880 -0.146447
vn -0.000000 1.000000 -0.000000
vn 0.353553 0.923880 0.146447
vn 0.653281 0.707107 0.270598
vn 0.853553 0.382683 0.353553
vn 0.923880 0.000000 0.382683
vn 0.853553 -0.382683 0.353553
vn 0.653281 -0.707107 0.270598
vn 0.353553 -0.923880 0.146447
vn 0.000000 -1.000000 0.000000
vn -0.353553 -0.923880 -0.146447
vn -0.653281 -0.707107 -0.270598
vn -0.853553 -0.382683 -0.353553
vn -0.923880 -0.000000 -0.382683
vn -0.831470 0.000000 -0.555570
vn -0.768178 0.382683 -0.513280
vn -0.587938 0.707107 -0.392847
vn -0.318190 0.923880 -0.212608
vn -0.000000 1.000000 -0.000000
vn 0.318190 0.923880 0.212608
vn 0.587938 0.707107 0.392847
vn 0.768178 0.382683 0.513280
vn 0.831470 0.000000 0.555570
vn 0.768178 -0.382683 0.513280
vn 0.587938 -0.707107 0.392847
vn 0.318190 -0.923880 0.212608
vn 0.000000 -1.000000 0.000000
vn -0.318190 -0.923880 -0.212608
vn -0.587938 -0.707107 -0.392847
vn -0.768178 -0.382683 -0.513280
vn -0.831470 -0.000000 -0.555570
vn -0.707107 0.000000 -0.707107
vn -0.653281 0.382683 -0.653281
vn -0.500000 0.707107 -0.500000
vn -0.270598 0.923880 -0.270598
vn -0.000000 1.000000 -0.000000
vn 0.270598 0.923880 0.270598
vn 0.500000 0.707107 0.500000
vn 0.653281 0.382683 0.653281
vn 0.707107 0.000000 0.707107
vn 0.653281 -0.382683 0.653281
vn 0.500000 -0.707107 0.500000
vn 0.270598 -0.923880 0.270598
vn 0.000000 -1.000000 0.000000
vn -0.270598 -0.923880 -0.270598
vn -0.500000 -0.707107 -0.500000
vn -0.653281 -0.382683 -0.653281
vn -0.707107 -0.000000 -0.707107
vn -0.555570 0.000000 -0.831470
vn -0.513280 0.382683 -0.768178
vn -0.392847 0.707107 -0.587938
vn -0.212608 0.923880 -0.318190
vn -0.000000 1.000000 -0.000000
vn 0.212608 0.923880 0.318190
vn 0.392847 0.707107 0.587938
vn 0.513280 0.382683 0.768178
vn 0.555570 0.000000 0.831470
vn 0.513280 -0.382683 0.768178
vn 0.392847 -0.707107 0.587938
vn 0.212608 -0.923880 0.318190
vn 0.000000 -1.000000 0.000000
vn -0.212608 -0.923880 -0.318190
vn -0.392847 -0.707107 -0.587938
vn -0.513280 -0.382683 -0.768178
vn -0.555570 -0.000000 -0.831470
vn -0.382683 0.000000 -0.923880
vn -0.353553 0.382683 -0.853553
vn -0.270598 0.707107 -0.653281
vn -0.146447 0.923880 -0.353553
vn -0.000000 1.000000 -0.000000
vn 0.146447 0.923880 0.353553
vn 0.270598 0.707107 0.653281
vn 0.353553 0.382683 0.853553
vn 0.382683 0.000000 0.923880
vn 0.353553 -0.382683 0.853553
vn 0.270598 -0.707107 0.653281
vn 0.146447 -0.923880 0.353553
vn 0.000000 -1.000000 0.000000
vn -0.146447 -0.923880 -0.353553
vn -0.270598 -0.707107 -0.653281
vn -0.353553 -0.382683 -0.853553
vn -0.382683 -0.000000 -0.923880
vn -0.195090 0.000000 -0.980785
vn -0.180240 0.382683 -0.906127
vn -0.137950 0.707107 -0.693520
vn -0.074658 0.923880 -0.375330
vn -0.000000 1.000000 -0.000000
vn 0.074658 0.923880 0.375330
vn 0.137950 0.707107 0.693520
vn 0.180240 0.382683 0.906127
vn 0.195090 0.000000 0.980785
vn 0.180240 -0.382683 0.906127
vn 0.137950 -0.707107 0.693520
vn 0.074658 -0.923880 0.375330
vn 0.000000 -1.000000 0.000000
vn -0.074658 -0.923880 -0.375330
vn -0.137950 -0.707107 -0.693520
vn -0.180240 -0.382683 -0.906127
vn -0.195090 -0.000000 -0.980785
vn -0.000000 0.000000 -1.000000
vn -0.000000 0.382683 -0.923880
vn -0.000000 0.707107 -0.707107
vn -0.000000 0.923880 -0.382683
vn -0.000000 1.000000 -0.000000
vn 0.000000 0.923880 0.382683
vn 0.000000 0.707107 0.707107
vn 0.000000 0.382683 0.923880
vn 0.000000 0.000000 1.000000
vn 0.000000 -0.382683 0.923880
vn 0.000000 -0.707107 0.707107
vn 0.000000 -0.923880 0.382683
vn 0.000000 -1.000000 0.000000
vn -0.000000 -0.923880 -0.382683
vn -0.000000 -0.707107 -0.707107
vn -0.000000 -0.382683 -0.923880
vn -0.000000 -0.000000 -1.000000
vn 0.195090 0.000000 -0.980785
vn 0.180240 0.382683 -0.906127
vn 0.137950 0.707107 -0.693520
vn 0.074658 0.923880 -0.375330
vn 0.000000 1.000000 -0.000000
vn -0.074658 0.923880 0.375330
vn -0.137950 0.707107 0.693520
vn -0.180240 0.382683 0.906127
vn -0.195090 0.000000 0.980785
vn -0.180240 -0.382683 0.906127
vn -0.137950 -0.707107 0.693520
vn -0.074658 -0.923880 0.375330
vn -0.000000 -1.000000 0.000000
vn 0.074658 -0.923880 -0.375330
vn 0.137950 -0.707107 -0.693520
vn 0.180240 -0.382683 -0.906127
vn 0.195090 -0.000000 -0.980785
vn 0.382683 0.000000 -0.923880
vn 0.353553 0.382683 -0.853553
vn 0.270598 0.707107 -0.653281
vn 0.146447 0.923880 -0.353553
vn 0.000000 1.000000 -0.000000
vn -0.146447 0.923880 0.353553
vn -0.270598 0.707107 0.653281
vn -0.353553 0.382683 0.853553
vn -0.382683 0.000000 0.923880
vn -0.353553 -0.382683 0.853553
vn -0.270598 -0.707107 0.653281
vn -0.146447 -0.923880 0.353553
vn -0.000000 -1.000000 0.000000
vn 0.146447 -0.923880 -0.353553
vn 0.270598 -0.707107 -0.653281
vn 0.353553 -0.382683 -0.853553
vn 0.382683 -0.000000 -0.923880
vn 0.555570 0.000000 -0.831470
vn 0.513280 0.382683 -0.768178
vn 0.392847 0.707107 -0.587938
vn 0.212608 0.923880 -0.318190
vn 0.000000 1.000000 -0.000000
vn -0.212608 0.923880 0.318190
vn -0.392847 0.707107 0.587938
vn -0.513280 0.382683 0.768178
vn -0.555570 0.000000 0.831470
vn -0.513280 -0.382683 0.768178
vn -0.392847 -0.707107 0.587938
vn -0.212608 -0.923880 0.318190
vn -0.000000 -1.000000 0.000000
vn 0.212608 -0.923880 -0.318190
vn 0.392847 -0.707107 -0.587938
vn 0.513280 -0.382683 -0.768178
vn 0.555570 -0.000000 -0.831470
vn 0.707107 0.000000 -0.707107
vn 0.653281 0.382683 -0.653281
vn 0.500000 0.707107 -0.500000
vn 0.270598 0.923880 -0.270598
vn 0.000000 1.000000 -0.000000
vn -0.270598 0.923880 0.270598
vn -0.500000 0.707107 0.500000
vn -0.653281 0.382683 0.653281
vn -0.707107 0.000000 0.707107
vn -0.653281 -0.382683 0.653281
vn -0.500000 -0.707107 0.500000
vn -0.270598 -0.923880 0.270598
vn -0.000000 -1.000000 0.000000
vn 0.270598 -0.923880 -0.270598
vn 0.500000 -0.707107 -0.500000
vn 0.653281 -0.382683 -0.653281
vn 0.707107 -0.000000 -0.707107
vn 0.831470 0.000000 -0.555570
vn 0.768178 0.382683 -0.513280
vn 0.587938 0.707107 -0.392847
vn 0.318190 0.923880 -0.212608
vn 0.000000 1.000000 -0.000000
vn -0.318190 0.923880 0.212608
vn -0.587938 0.707107 0.392847
vn -0.768178 0.382683 0.513280
vn -0.831470 0.000000 0.555570
vn -0.768178 -0.382683 0.513280
vn -0.587938 -0.707107 0.392847
vn -0.318190 -0.923880 0.212608
vn -0.000000 -1.000000 0.000000
vn 0.318190 -0.923880 -0.212608
vn 0.587938 -0.707107 -0.392847
vn 0.768178 -0.382683 -0.513280
vn 0.831470 -0.000000 -0.555570
vn 0.923880 0.000000 -0.382683
vn 0.853553 0.382683 -0.353553
vn 0.653281 0.707107 -0.270598
vn 0.353553 0.923880 -0.146447
vn 0.000000 1.000000 -0.000000
vn -0.353553 0.923880 0.146447
vn -0.653281 0.707107 0.270598
vn -0.853553 0.382683 0.353553
vn -0.923880 0.000000 0.382683
vn -0.853553 -0.382683 0.353553
vn -0.653281 -0.707107 0.270598
vn -0.353553 -0.923880 0.146447
vn -0.000000 -1.000000 0.000000
vn 0.353553 -0.923880 -0.146447
vn 0.653281 -0.707107 -0.270598
vn 0.853553 -0.382683 -0.353553
vn 0.923880 -0.000000 -0.382683
vn 0.980785 0.000000 -0.195090
vn 0.906127 0.382683 -0.180240
vn 0.693520 0.707107 -0.137950
vn 0.375330 0.923880 -0.074658
vn 0.000000 1.000000 -0.000000
vn -0.375330 0.923880 0.074658
vn -0.693520 0.707107 0.137950
vn -0.906127 0.382683 0.180240
vn -0.980785 0.000000 0.195090
vn -0.906127 -0.382683 0.180240
vn -0.693520 -0.707107 0.137950
vn -0.375330 -0.923880 0.074658
vn -0.000000 -1.000000 0.000000
vn 0.375330 -0.923880 -0.074658
vn 0.693520 -0.707107 -0.137950
vn 0.906127 -0.382683 -0.180240
vn 0.980785 -0.000000 -0.195090
vn 1.000000 0.000000 -0.000000
vn 0.923880 0.382683 -0.000000
vn 0.707107 0.707107 -0.000000
vn 0.382683 0.923880 -0.000000
vn 0.000000 1.000000 -0.000000
vn -0.382683 0.923880 0.000000
vn -0.707107 0.707107 0.000000
vn -0.923880 0.382683 0.000000
vn -1.000000 0.000000 0.000000
vn -0.923880 -0.382683 0.000000
vn -0.707107 -0.707107 0.000000
vn -0.382683 -0.923880 0.000000
vn -0.000000 -1.000000 0.000000
vn 0.382683 -0.923880 -0.000000
vn 0.707107 -0.707107 -0.000000
vn 0.923880 -0.382683 -0.000000
vn 1.000000 -0.000000 -0.000000

f 1/1/1 19/19/19 18/18/18
f 1/1/1 2/2/2 19/19/19
f 2/2/2 20/20/20 19/19/19
f 2/2/2 3/3/3 20/20/20
f 3/3/3 21/21/21 20/20/20
f 3/3/3 4/4/4 21/21/21
f 4/4/4 22/22/22 21/21/21
f 4/4/4 5/5/5 22/22/22
f 5/5/5 23/23/23 22/22/22
f 5/5/5 6/6/6 23/23/23
f 6/6/6 24/24/24 23/23/23
f 6/6/6 7/7/7 24/24/24
f 7/7/7 25/25/25 24/24/24
f 7/7/7 8/8/8 25/25/25
f 8/8/8 26/26/26 25/25/25
f 8/8/8 9/9/9 26/26/26
f 9/9/9 27/27/27 26/26/26
f 9/9/9 10/10/10 27/27/27
f 10/10/10 28/28/28 27/27/27
f 10/10/10 11/11/11 28/28/28
f 11/11/11 29/29/29 28/28/28
f 11/11/11 12/12/12 29/29/29
f 12/12/12 30/30/30 29/29/29
f 12/12/12 13/13/13 30/30/30
f 13/13/13 31/31/31 30/30/30
f 13/13/13 14/14/14 31/31/31
f 14/14/14 32/32/32 31/31/31
f 14/14/14 15/15/15 32/32/32
f 15/15/15 33/33/33 32/32/32
f 15/15/15 16/16/16 33/33/33
f 16/16/16 34/34/34 33/33/33
f 16/16/16 17/17/17 34/34/34
f 18/18/18 36/36/36 35/35/35
f 18/18/18 19/19/19 36/36/36
f 19/19/19 37/37/37 36/36/36
f 19/19/19 20/20/20 37/37/37
f 20/20/20 38/38/38 37/37/37
f 20/20/20 21/21/21 38/38/38
f 21/21/21 39/39/39 38/38/38
f 21/21/21 22/22/22 39/39/39
f 22/22/22 40/40/40 39/39/39
f 22/22/22 23/23/23 40/40/40
f 23/23/23 41/41/41 40/40/40
f 23/23/23 24/24/24 41/41/41
f 24/24/24 42/42/42 41/41/41
f 24/24/24 25/25/25 42/42/42
f 25/25/25 43/43/43 42/42/42
f 25/25/25 26/26/26 43/43/43
f 26/26/26 44/44/44 43/43/43
f 26/26/26 27/27/27 44/44/44
f 27/27/27 45/45/45 44/44/44
f 27/27/27 28/28/28 45/45/45
f 28/28/28 46/46/46 45/45/45
f 28/28/28 29/29/29 46/46/46
f 29/29/29 47/47/47 46/46/46
f 29/29/29 30/30/30 47/47/47
f 30/30/30 48/48/48 47/47/47
f 30/30/30 31/31/31 48/48/48
f 31/31/31 49/49/49 48/48/48
f 31/31/31 32/32/32 49/49/49
f 32/32/32 50/50/50 49/49/49
f 32/32/32 33/33/33 50/50/50
f 33/33/33 51/51/51 50/50/50
f 33/33/33 34/34/34 51/51/51
f 35/35/35 53/53/53 52/52/52
f 35/35/35 36/36/36 53/53/53
f 36/36/36 54/54/54 53/53/53
f 36/36/36 37/37/37 54/54/54
f 37/37/37 55/55/55 54/54/54
f 37/37/37 38/38/38 55/55/55
f 38/38/38 56/56/56 55/55/55
f 38/38/38 39/39/39 56/56/56
f 39/39/39 57/57/57 56/56/56
f 39/39/39 40/40/40 57/57/57
f 40/40/40 58/58/58 57/57/57
f 40/40/40 41/41/41 58/58/58
f 41/41/41 59/59/59 58/58/58
f 41/41/41 42/42/42 59/59/59
f 42/42/42 60/60/60 59/59/59
f 42/42/42 43/43/43 60/60/60
f 43/43/43 61/61/61 60/60/60
f 43/43/43 44/44/44 61/61/61
f 44/44/44 62/62/62 61/61/61
f 44/44/44 45/45/45 62/62/62
f 45/45/45 63/63/63 62/62/62
f 45/45/45 46/46/46 63/63/63
f 46/46/46 64/64/64 63/63/63
f 46/46/46 47/47/47 64/64/64
f 47/47/47 65/65/65 64/64/64
f 47/47/47 48/48/48 65/65/65
f 48/48/48 66/66/66 65/65/65
f 48/48/48 49/49/49 66/66/66
f 49/49/49 67/67/67 66/66/66
f 49/49/49 50/50/50 67/67/67
f 50/50/50 68/68/68 67/67/67
f 50/50/50 51/51/51 68/68/68
f 52/52/52 70/70/70 69/69/69
f 52/52/52 53/53/53 70/70/70
f 53/53/53 71/71/71 70/70/70
f 53/53/53 54/54/54 71/71/71
f 54/54/54 72/72/72 71/71/71
f 54/54/54 55/55/55 72/72/72
f 55/55/55 73/73/73 72/72/72
f 55/55/55 56/56/56 73/73/73
f 56/56/56 74/74/74 73/73/73
f 56/56/56 57/57/57 74/74/74
f 57/57/57 75/75/75 74/74/74
f 57/57/57 58/58/58 75/75/75
f 58/58/58 76/76/76 75/75/75
f 58/58/58 59/59/59 76/76/76
f 59/59/59 77/77/77 76/76/76
f 59/59/59 60/60/60 77/77/77
f 60/60/60 78/78/78 77/77/77
f 60/60/60 61/61/61 78/78/78
f 61/61/61 79/79/79 78/78/78
f 61/61/61 62/62/62 79/79/79
f 62/62/62 80/80/80 79/79/79
f 62/62/62 63/63/63 80/80/80
f 63/63/63 81/81/81 80/80/80
f 63/63/63 64/64/64 81/81/81
f 64/64/64 82/82/82 81/81/81
f 64/64/64 65/65/65 82/82/82
f 65/65/65 83/83/83 82/82/82
f 65/65/65 66/66/66 83/83/83
f 66/66/66 84/84/84 83/83/83
f 66/66/66 67/67/67 84/84/84
f 67/67/67 85/85/85 84/84/84
f 67/67/67 68/68/68 85/85/85
f 69/69/69 87/87/87 86/86/86
f 69/69/69 70/70/70 87/87/87
f 70/70/70 88/88/88 87/87/87
f 70/70/70 71/71/71 88/88/88
f 71/71/71 89/89/89 88/88/88
f 71/71/71 72/72/72 89/89/89
f 72/72/72 90/90/90 89/89/89
f 72/72/72 73/73/73 90/90/90
f 73/73/73 91/91/91 90/90/90
f 73/73/73 74/74/74 91/91/91
f 74/74/74 92/92/92 91/91/91
f 74/74/74 75/75/75 92/92/92
f 75/75/75 93/93/93 92/92/92
f 75/75/75 76/76/76 93/93/93
f 76/76/76 94/94/94 93/93/93
f 76/76/76 77/77/77 94/94/94
f 77/77/77 95/95/95 94/94/94
f 77/77/77 78/78/78 95/95/95
f 78/78/78 96/96/96 95/95/95
f 78/78/78 79/79/79 96/96/96
f 79/79/79 97/97/97 96/96/96
f 79/79/79 80/80/80 97/97/97
f 80/80/80 98/98/98 97/97/97
f 80/80/80 81/81/81 98/98/98
f 81/81/81 99/99/99 98/98/98
f 81/81/81 82/82/82 99/99/99
f 82/82/82 100/100/100 99/99/99
f 82/82/82 83/83/83 100/100/100
f 83/83/83 101/101/101 100/100/100
f 83/83/83 84/84/84 101/101/101
f 84/84/84 102/102/102 101/101/101
f 84/84/84 85/85/85 102/102/102
f 86/86/86 104/104/104 103/103/103
f 86/86/86 87/87/87 104/104/104
f 87/87/87 105/105/105 104/104/104
f 87/87/87 88/88/88 105/105/105
f 88/88/88 106/106/106 105/105/105
f 88/88/88 89/89/89 106/106/106
f 89/89/89 107/107/107 106/106/106
f 89/89/89 90/90/90 107/107/107
f 90/90/90 108/108/108 107/107/107
f 90/90/90 91/91/91 108/108/108
f 91/91/91 109/109/109 108/108/108
f 91/91/91 92/92/92 109/109/109
f 92/92/92 110/110/110 109/109/109
f 92/92/92 93/93/93 110/110/110
f 93/93/93 111/111/111 110/110/110
f 93/93/93 94/94/94 111/111/111
f 94/94/94 112/112/112 111/111/111
f 94/94/94 95/95/95 112/112/112
f 95/95/95 113/113/113 112/112/112
f 95/95/95 96/96/96 113/113/113
f 96/96/96 114/114/114 113/113/113
f 96/96/96 97/97/97 114/114/114
f 97/97/97 115/115/115 114/114/114
f 97/97/97 98/98/98 115/115/115
f 98/98/98 116/116/116 115/115/115
f 98/98/98 99/99/99 116/116/116
f 99/99/99 117/117/117 116/116/116
f 99/99/99 100/100/100 117/117/117
f 100/100/100 118/118/118 117/117/117
f 100/100/100 101/101/101 118/118/118
f 101/101/101 119/119/119 118/118/118
f 101/101/101 102/102/102 119/119/119
f 103/103/103 121/121/121 120/120/120
f 103/103/103 104/104/104 121/121/121
f 104/104/104 122/122/122 121/121/121
f 104/104/104 105/105/105 122/122/122
f 105/105/105 123/123/123 122/122/122
f 105/105/105 106/106/106 123/123/123
f 106/106/106 124/124/124 123/123/123
f 106/106/106 107/107/107 124/124/124
f 107/107/107 125/125/125 124/124/124
f 107/107/107 108/108/108 125/125/125
f 108/108/108 126/126/126 125/125/125
f 108/108/108 109/109/109 126/126/126
f 109/109/109 127/127/127 126/126/126
f 109/109/109 110/110/110 127/127/127
f 110/110/110 128/128/128 127/127/127
f 110/110/110 111/111/111 128/128/128
f 111/111/111 129/129/129 128/128/128
f 111/111/111 112/112/112 129/129/129
f 112/112/112 130/130/130 129/129/129
f 112/112/112 113/113/113 130/130/130
f 113/113/113 131/131/131 130/130/130
f 113/113/113 114/114/114 131/131/131
f 114/114/114 132/132/132 131/131/131
f 114/114/114 115/115/115 132/132/132
f 115/115/115 133/133/133 132/132/132
f 115/115/115 116/116/116 133/133/133
f 116/116/116 134/134/134 133/133/133
f 116/116/116 117/117/117 134/134/134
f 117/117/117 135/135/135 134/134/134
f 117/117/117 118/118/118 135/135/135
f 118/118/118 136/136/136 135/135/135
f 118/118/118 119/119/119 136/136/136
f 120/120/120 138/138/138 137/137/137
f 120/120/120 121/121/121 138/138/138
f 121/121/121 139/139/139 138/138/138
f 121/121/121 122/122/122 139/139/139
f 122/122/122 140/140/140 139/139/139
f 122/122/122 123/123/123 140/140/140
f 123/123/123 141/141/141 140/140/140
f 123/123/123 124/124/124 141/141/141
f 124/124/124 142/142/142 141/141/141
f 124/124/124 125/125/125 142/142/142
f 125/125/125 143/143/143 142/142/142
f 125/125/125 126/126/126 143/143/143
f 126/126/126 144/144/144 143/143/143
f 126/126/126 127/127/127 144/144/144
f 127/127/127 145/145/145 144/144/144
f 127/127/127 128/128/128 145/145/145
f 128/128/128 146/146/146 145/145/145
f 128/128/128 129/129/129 146/146/146
f 129/129/129 147/147/147 146/146/146
f 129/129/129 130/130/130 147/147/147
f 130/130/130 148/148/148 147/147/147
f 130/130/130 131/131/131 148/148/148
f 131/131/131 149/149/149 148/148/148
f 131/131/131 132/132/132 149/149/149
f 132/132/132 150/150/150 149/149/149
f 132/132/132 133/133/133 150/150/150
f 133/133/133 151/151/151 150/150/150
f 133/133/133 134/134/134 151/151/151
f 134/134/134 152/152/152 151/151/151
f 134/134/134 135/135/135 152/152/152
f 135/135/135 153/153/153 152/152/152
f 135/135/135 136/136/136 153/153/153
f 137/137/137 155/155/155 154/154/154
f 137/137/137 138/138/138 155/155/155
f 138/138/138 156/156/156 155/155/155
f 138/138/138 139/139/139 156/156/156
f 139/139/139 157/157/157 156/156/156
f 139/139/139 140/140/140 157/157/157
f 140/140/140 158/158/158 157/157/157
f 140/140/140 141/141/141 158/158/158
f 141/141/141 159/159/159 158/158/158
f 141/141/141 142/142/142 159/159/159
f 142/142/142 160/160/160 159/159/159
f 142/142/142 143/143/143 160/160/160
f 143/143/143 161/161/161 160/160/160
f 143/143/143 144/144/144 161/161/161
f 144/144/144 162/162/162 161/161/161
f 144/144/144 145/145/145 162/162/162
f 145/145/145 163/163/163 162/162/162
f 145/145/145 146/146/146 163/163/163
f 146/146/146 164/164/164 163/163/163
f 146/146/146 147/147/147 164/164/164
f 147/147/147 165/165/165 164/164/164
f 147/147/147 148/148/148 165/165/165
f 148/148/148 166/166/166 165/165/165
f 148/148/148 149/149/149 166/166/166
f 149/149/149 167/167/167 166/166/166
f 149/149/149 150/150/150 167/167/167
f 150/150/150 168/168/168 167/167/167
f 150/150/150 151/151/151 168/168/168
f 151/151/151 169/169/169 168/168/168
f 151/151/151 152/152/152 169/169/169
f 152/152/152 170/170/170 169/169/169
f 152/152/152 153/153/153 170/170/170
f 154/154/154 172/172/172 171/171/171
f 154/154/154 155/155/155 172/172/172
f 155/155/155 173/173/173 172/172/172
f 155/155/155 156/156/156 173/173/173
f 156/156/156 174/174/174 173/173/173
f 156/156/156 157/157/157 174/174/174
f 157/157/157 175/175/175 174/174/174
f 157/157/157 158/158/158 175/175/175
f 158/158/158 176/176/176 175/175/175
f 158/158/158 159/159/159 176/176/176
f 159/159/159 177/177/177 176/176/176
f 159/159/159 160/160/160 177/177/177
f 160/160/160 178/178/178 177/177/177
f 160/160/160 161/161/161 178/178/178
f 161/161/161 179/179/179 178/178/178
f 161/161/161 162/162/162 179/179/179
f 162/162/162 180/180/180 179/179/179
f 162/162/162 163/163/163 180/180/180
f 163/163/163 181/181/181 180/180/180
f 163/163/163 164/164/164 181/181/181
f 164/164/164 182/182/182 181/181/181
f 164/164/164 165/165/165 182/182/182
f 165/165/165 183/183/183 182/182/182
f 165/165/165 166/166/166 183/183/183
f 166/166/166 184/184/184 183/183/183
f 166/166/166 167/167/167 184/184/184
f 167/167/167 185/185/185 184/184/184
f 167/167/167 168/168/168 185/185/185
f 168/168/168 186/186/186 185/185/185
f 168/168/168 169/169/169 186/186/186
f 169/169/169 187/187/187 186/186/186
f 169/169/169 170/170/170 187/187/187
f 171/171/171 189/189/189 188/188/188
f 171/171/171 172/172/172 189/189/189
f 172/172/172 190/190/190 189/189/189
f 172/172/172 173/173/173 190/190/190
f 173/173/173 191/191/191 190/190/190
f 173/173/173 174/174/174 191/191/191
f 174/174/174 192/192/192 191/191/191
f 174/174/174 175/175/175 192/192/192
f 175/175/175 193/193/193 192/192/192
f 175/175/175 176/176/176 193/193/193
f 176/176/176 194/194/194 193/193/193
f 176/176/176 177/177/177 194/194/194
f 177/177/177 195/195/195 194/194/194
f 177/177/177 178/178/178 195/195/195
f 178/178/178 196/196/196 195/195/195
f 178/178/178 179/179/179 196/196/196
f 179/179/179 197/197/197 196/196/196
f 179/179/179 180/180/180 197/197/197
f 180/180/180 198/198/198 197/197/197
f 180/180/180 181/181/181 198/198/198
f 181/181/181 199/199/199 198/198/198
f 181/181/181 182/182/182 199/199/199
f 182/182/182 200/200/200 199/199/199
f 182/182/182 183/183/183 200/200/200
f 183/183/183 201/201/201 200/200/200
f 183/183/183 184/184/184 201/201/201
f 184/184/184 202/202/202 201/201/201
f 184/184/184 185/185/185 202/202/202
f 185/185/185 203/203/203 202/202/202
f 185/185/185 186/186/186 203/203/203
f 186/186/186 204/204/204 203/203/203
f 186/186/186 187/187/187 204/204/204
f 188/188/188 206/206/206 205/205/205
f 188/188/188 189/189/189 206/206/206
f 189/189/189 207/207/207 206/206/206
f 189/189/189 190/190/190 207/207/207
f 190/190/190 208/208/208 207/207/207
f 190/190/190 191/191/191 208/208/208
f 191/191/191 209/209/209 208/208/208
f 191/191/191 192/192/192 209/209/209
f 192/192/192 210/210/210 209/209/209
f 192/192/192 193/193/193 210/210/210
f 193/193/193 211/211/211 210/210/210
f 193/193/193 194/194/194 211/211/211
f 194/194/194 212/212/212 211/211/211
f 194/194/194 195/195/195 212/212/212
f 195/195/195 213/213/213 212/212/212
f 195/195/195 196/196/196 213/213/213
f 196/196/196 214/214/214 213/213/213
f 196/196/196 197/197/197 214/214/214
f 197/197/197 215/215/215 214/214/214
f 197/197/197 198/198/198 215/215/215
f 198/198/198 216/216/216 215/215/215
f 198/198/198 199/199/199 216/216/216
f 199/199/199 217/217/217 216/216/216
f 199/199/199 200/200/200 217/217/217
f 200/200/200 218/218/218 217/217/217
f 200/200/200 201/201/201 218/218/218
f 201/201/201 219/219/219 218/218/218
f 201/201/201 202/202/202 219/219/219
f 202/202/202 220/220/220 219/219/219
f 202/202/202 203/203/203 220/220/220
f 203/203/203 221/221/221 220/220/220
f 203/203/203 204/204/204 221/221/221
f 205/205/205 223/223/223 222/222/222
f 205/205/205 206/206/206 223/223/223
f 206/206/206 224/224/224 223/223/223
f 206/206/206 207/207/207 224/224/224
f 207/207/207 225/225/225 224/224/224
f 207/207/207 208/208/208 225/225/225
f 208/208/208 226/226/226 225/225/225
f 208/208/208 209/209/209 226/226/226
f 209/209/209 227/227/227 226/226/226
f 209/209/209 210/210/210 227/227/227
f 210/210/210 228/228/228 227/227/227
f 210/210/210 211/211/211 228/228/228
f 211/211/211 229/229/229 228/228/228
f 211/211/211 212/212/212 229/229/229
f 212/212/212 230/230/230 229/229/229
f 212/212/212 213/213/213 230/230/230
f 213/213/213 231/231/231 230/230/230
f 213/213/213 214/214/214 231/231/231
f 214/214/214 232/232/232 231/231/231
f 214/214/214 215/215/215 232/232/232
f 215/215/215 233/233/233 232/232/232
f 215/215/215 216/216/216 233/233/233
f 216/216/216 234/234/234 233/233/233
f 216/216/216 217/217/217 234/234/234
f 217/217/217 235/235/235 234/234/234
f 217/217/217 218/218/218 235/235/235
f 218/218/218 236/236/236 235/235/235
f 218/218/218 219/219/219 236/236/236
f 219/219/219 237/237/237 236/236/236
f 219/219/219 220/220/220 237/237/237
f 220/220/220 238/238/238 237/237/237
f 220/220/220 221/221/221 238/238/238
f 222/222/222 240/240/240 239/239/239
f 222/222/222 223/223/223 240/240/240
f 223/223/223 241/241/241 240/240/240
f 223/223/223 224/224/224 241/241/241
f 224/224/224 242/242/242 241/241/241
f 224/224/224 225/225/225 242/242/242
f 225/225/225 243/243/243 242/242/242
f 225/225/225 226/226/226 243/243/243
f 226/226/226 244/244/244 243/243/243
f 226/226/226 227/227/227 244/244/244
f 227/227/227 245/245/245 244/244/244
f 227/227/227 228/228/228 245/245/245
f 228/228/228 246/246/246 245/245/245
f 228/228/228 229/229/229 246/246/246
f 229/229/229 247/247/247 246/246/246
f 229/229/229 230/230/230 247/247/247
f 230/230/230 248/248/248 247/247/247
f 230/230/230 231/231/231 248/248/248
f 231/231/231 249/249/249 248/248/248
f 231/231/231 232/232/232 249/249/249
f 232/232/232 250/250/250 249/249/249
f 232/232/232 233/233/233 250/250/250
f 233/233/233 251/251/251 250/250/250
f 233/233/233 234/234/234 251/251/251
f 234/234/234 252/252/252 251/251/251
f 234/234/234 235/235/235 252/252/252
f 235/235/235 253/253/253 252/252/252
f 235/235/235 236/236/236 253/253/253
f 236/236/236 254/254/254 253/253/253
f 236/236/236 237/237/237 254/254/254
f 237/237/237 255/255/255 254/254/254
f 237/237/237 238/238/238 255/255/255
f 239/239/239 257/257/257 256/256/256
f 239/239/239 240/240/240 257/257/257
f 240/240/240 258/258/258 257/257/257
f 240/240/240 241/241/241 258/258/258
f 241/241/241 259/259/259 258/258/258
f 241/241/241 242/242/242 259/259/259
f 242/242/242 260/260/260 259/259/259
f 242/242/242 243/243/243 260/260/260
f 243/243/243 261/261/261 260/260/260
f 243/243/243 244/244/244 261/261/261
f 244/244/244 262/262/262 261/261/261
f 244/244/244 245/245/245 262/262/262
f 245/245/245 263/263/263 262/262/262
f 245/245/245 246/246/246 263/263/263
f 246/246/246 264/264/264 263/263/263
f 246/246/246 247/247/247 264/264/264
f 247/247/247 265/265/265 264/264/264
f 247/247/247 248/248/248 265/265/265
f 248/248/248 266/266/266 265/265/265
f 248/248/248 249/249/249 266/266/266
f 249/249/249 267/267/267 266/266/266
f 249/249/249 250/250/250 267/267/267
f 250/250/250 268/268/268 267/267/267
f 250/250/250 251/251/251 268/268/268
f 251/251/251 269/269/269 268/268/268
f 251/251/251 252/252/252 269/269/269
f 252/252/252 270/270/270 269/269/269
f 252/252/252 253/253/253 270/270/270
f 253/253/253 271/271/271 270/270/270
f 253/253/253 254/254/254 271/271/271
f 254/254/254 272/272/272 271/271/271
f 254/254/254 255/255/255 272/272/272
f 256/256/256 274/274/274 273/273/273
f 256/256/256 257/257/257 274/274/274
f 257/257/257 275/275/275 274/274/274
f 257/257/257 258/258/258 275/275/275
f 258/258/258 276/276/276 275/275/275
f 258/258/258 259/259/259 276/276/276
f 259/259/259 277/277/277 276/276/276
f 259/259/259 260/260/260 277/277/277
f 260/260/260 278/278/278 277/277/277
f 260/260/260 261/261/261 278/278/278
f 261/261/261 279/279/279 278/278/278
f 261/261/261 262/262/262 279/279/279
f 262/262/262 280/280/280 279/279/279
f 262/262/262 263/263/263 280/280/280
f 263/263/263 281/281/281 280/280/280
f 263/263/263 264/264/264 281/281/281
f 264/264/264 282/282/282 281/281/281
f 264/264/264 265/265/265 282/282/282
f 265/265/265 283/283/283 282/282/282
f 265/265/265 266/266/266 283/283/283
f 266/266/266 284/284/284 283/283/283
f 266/266/266 267/267/267 284/284/284
f 267/267/267 285/285/285 284/284/284
f 267/267/267 268/268/268 285/285/285
f 268/268/268 286/286/286 285/285/285
f 268/268/268 269/269/269 286/286/286
f 269/269/269 287/287/287 286/286/286
f 269/269/269 270/270/270 287/287/287
f 270/270/270 288/288/288 287/287/287
f 270/270/270 271/271/271 288/288/288
f 271/271/271 289/289/289 288/288/288
f 271/271/271 272/272/272 289/289/289
f 273/273/273 291/291/291 290/290/290
f 273/273/273 274/274/274 291/291/291
f 274/274/274 292/292/292 291/291/291
f 274/274/274 275/275/275 292/292/292
f 275/275/275 293/293/293 292/292/292
f 275/275/275 276/276/276 293/293/293
f 276/276/276 294/294/294 293/293/293
f 276/276/276 277/277/277 294/294/294
f 277/277/277 295/295/295 294/294/294
f 277/277/277 278/278/278 295/295/295
f 278/278/278 296/296/296 295/295/295
f 278/278/278 279/279/279 296/296/296
f 279/279/279 297/297/297 296/296/296
f 279/279/279 280/280/280 297/297/297
f 280/280/280 298/298/298 297/297/297
f 280/280/280 281/281/281 298/298/298
f 281/281/281 299/299/299 298/298/298
f 281/281/281 282/282/282 299/299/299
f 282/282/282 300/300/300 299/299/299
f 282/282/282 283/283/283 300/300/300
f 283/283/283 301/301/301 300/300/300
f 283/283/283 284/284/284 301/301/301
f 284/284/284 302/302/302 301/301/301
f 284/284/284 285/285/285 302/302/302
f 285/285/285 303/303/303 302/302/302
f 285/285/285 286/286/286 303/303/303
f 286/286/286 304/304/304 303/303/303
f 286/286/286 287/287/287 304/304/304
f 287/287/287 305/305/305 304/304/304
f 287/287/287 288/288/288 305/305/305
f 288/288/288 306/306/306 305/305/305
f 288/288/288 289/289/289 306/306/306
f 290/290/290 308/308/308 307/307/307
f 290/290/290 291/291/291 308/308/308
f 291/291/291 309/309/309 308/308/308
f 291/291/291 292/292/292 309/309/309
f 292/292/292 310/310/310 309/309/309
f 292/292/292 293/293/293 310/310/310
f 293/293/293 311/311/311 310/310/310
f 293/293/293 294/294/294 311/311/311
f 294/294/294 312/312/312 311/311/311
f 294/294/294 295/295/295 312/312/312
f 295/295/295 313/313/313 312/312/312
f 295/295/295 296/296/296 313/313/313
f 296/296/296 314/314/314 313/313/313
f 296/296/296 297/297/297 314/314/314
f 297/297/297 315/315/315 314/314/314
f 297/297/297 298/298/298 315/315/315
f 298/298/298 316/316/316 315/315/315
f 298/298/298 299/299/299 316/316/316
f 299/299/299 317/317/317 316/316/316
f 299/299/299 300/300/300 317/317/317
f 300/300/300 318/318/318 317/317/317
f 300/300/300 301/301/301 318/318/318
f 301/301/301 319/319/319 318/318/318
f 301/301/301 302/302/302 319/319/319
f 302/302/302 320/320/320 319/319/319
f 302/302/302 303/303/303 320/320/320
f 303/303/303 321/321/321 320/320/320
f 303/303/303 304/304/304 321/321/321
f 304/304/304 322/322/322 321/321/321
f 304/304/304 305/305/305 322/322/322
f 305/305/305 323/323/323 322/322/322
f 305/305/305 306/306/306 323/323/323
f 307/307/307 325/325/325 324/324/324
f 307/307/307 308/308/308 325/325/325
f 308/308/308 326/326/326 325/325/325
f 308/308/308 309/309/309 326/326/326
f 309/309/309 327/327/327 326/326/326
f 309/309/309 310/310/310 327/327/327
f 310/310/310 328/328/328 327/327/327
f 310/310/310 311/311/311 328/328/328
f 311/311/311 329/329/329 328/328/328
f 311/311/311 312/312/312 329/329/329
f 312/312/312 330/330/330 329/329/329
f 312/312/312 313/313/313 330/330/330
f 313/313/313 331/331/331 330/330/330
f 313/313/313 314/314/314 331/331/331
f 314/314/314 332/332/332 331/331/331
f 314/314/314 315/315/315 332/332/332
f 315/315/315 333/333/333 332/332/332
f 315/315/315 316/316/316 333/333/333
f 316/316/316 334/334/334 333/333/333
f 316/316/316 317/317/317 334/334/334
f 317/317/317 335/335/335 334/334/334
f 317/317/317 318/318/318 335/335/335
f 318/318/318 336/336/336 335/335/335
f 318/318/318 319/319/319 336/336/336
f 319/319/319 337/337/337 336/336/336
f 319/319/319 320/320/320 337/337/337
f 320/320/320 338/338/338 337/337/337
f 320/320/320 321/321/321 338/338/338
f 321/321/321 339/339/339 338/338/338
f 321/321/321 322/322/322 339/339/339
f 322/322/322 340/340/340 339/339/339
f 322/322/322 323/323/323 340/340/340
f 324/324/324 342/342/342 341/341/341
f 324/324/324 325/325/325 342/342/342
f 325/325/325 343/343/343 342/342/342
f 325/325/325 326/326/326 343/343/343
f 326/326/326 344/344/344 343/343/343
f 326/326/326 327/327/327 344/344/344
f 327/327/327 345/345/345 344/344/344
f 327/327/327 328/328/328 345/345/345
f 328/328/328 346/346/346 345/345/345
f 328/328/328 329/329/329 346/346/346
f 329/329/329 347/347/347 346/346/346
f 329/329/329 330/330/330 347/347/347
f 330/330/330 348/348/348 347/347/347
f 330/330/330 331/331/331 348/348/348
f 331/331/331 349/349/349 348/348/348
f 331/331/331 332/332/332 349/349/349
f 332/332/332 350/350/350 349/349/349
f 332/332/332 333/333/333 350/350/350
f 333/333/333 351/351/351 350/350/350
f 333/333/333 334/334/334 351/351/351
f 334/334/334 352/352/352 351/351/351
f 334/334/334 335/335/335 352/352/352
f 335/335/335 353/353/353 352/352/352
f 335/335/335 336/336/336 353/353/353
f 336/336/336 354/354/354 353/353/353
f 336/336/336 337/337/337 354/354/354
f 337/337/337 355/355/355 354/354/354
f 337/337/337 338/338/338 355/355/355
f 338/338/338 356/356/356 355/355/355
f 338/338/338 339/339/339 356/356/356
f 339/339/339 357/357/357 356/356/356
f 339/339/339 340/340/340 357/357/357
f 341/341/341 359/359/359 358/358/358
f 341/341/341 342/342/342 359/359/359
f 342/342/342 360/360/360 359/359/359
f 342/342/342 343/343/343 360/360/360
f 343/343/343 361/361/361 360/360/360
f 343/343/343 344/344/344 361/361/361
f 344/344/344 362/362/362 361/361/361
f 344/344/344 345/345/345 362/362/362
f 345/345/345 363/363/363 362/362/362
f 345/345/345 346/346/346 363/363/363
f 346/346/346 364/364/364 363/363/363
f 346/346/346 347/347/347 364/364/364
f 347/347/347 365/365/365 364/364/364
f 347/347/347 348/348/348 365/365/365
f 348/348/348 366/366/366 365/365/365
f 348/348/348 349/349/349 366/366/366
f 349/349/349 367/367/367 366/366/366
f 349/349/349 350/350/350 367/367/367
f 350/350/350 368/368/368 367/367/367
f 350/350/350 351/351/351 368/368/368
f 351/351/351 369/369/369 368/368/368
f 351/351/351 352/352/352 369/369/369
f 352/352/352 370/370/370 369/369/369
f 352/352/352 353/353/353 370/370/370
f 353/353/353 371/371/371 370/370/370
f 353/353/353 354/354/354 371/371/371
f 354/354/354 372/372/372 371/371/371
f 354/354/354 355/355/355 372/372/372
f 355/355/355 373/373/373 372/372/372
f 355/355/355 356/356/356 373/373/373
f 356/356/356 374/374/374 373/373/373
f 356/356/356 357/357/357 374/374/374
f 358/358/358 376/376/376 375/375/375
f 358/358/358 359/359/359 376/376/376
f 359/359/359 377/377/377 376/376/376
f 359/359/359 360/360/360 377/377/377
f 360/360/360 378/378/378 377/377/377
f 360/360/360 361/361/361 378/378/378
f 361/361/361 379/379/379 378/378/378
f 361/361/361 362/362/362 379/379/379
f 362/362/362 380/380/380 379/379/379
f 362/362/362 363/363/363 380/380/380
f 363/363/363 381/381/381 380/380/380
f 363/363/363 364/364/364 381/381/381
f 364/364/364 382/382/382 381/381/381
f 364/364/364 365/365/365 382/382/382
f 365/365/365 383/383/383 382/382/382
f 365/365/365 366/366/366 383/383/383
f 366/366/366 384/384/384 383/383/383
f 366/366/366 367/367/367 384/384/384
f 367/367/367 385/385/385 384/384/384
f 367/367/367 368/368/368 385/385/385
f 368/368/368 386/386/386 385/385/385
f 368/368/368 369/369/369 386/386/386
f 369/369/369 387/387/387 386/386/386
f 369/369/369 370/370/370 387/387/387
f 370/370/370 388/388/388 387/387/387
f 370/370/370 371/371/371 388/388/388
f 371/371/371 389/389/389 388/388/388
f 371/371/371 372/372/372 389/389/389
f 372/372/372 390/390/390 389/389/389
f 372/372/372 373/373/373 390/390/390
f 373/373/373 391/391/391 390/390/390
f 373/373/373 374/374/374 391/391/391
f 375/375/375 393/393/393 392/392/392
f 375/375/375 376/376/376 393/393/393
f 376/376/376 394/394/394 393/393/393
f 376/376/376 377/377/377 394/394/394
f 377/377/377 395/395/395 394/394/394
f 377/377/377 378/378/378 395/395/395
f 378/378/378 396/396/396 395/395/395
f 378/378/378 379/379/379 396/396/396
f 379/379/379 397/397/397 396/396/396
f 379/379/379 380/380/380 397/397/397
f 380/380/380 398/398/398 397/397/397
f 380/380/380 381/381/381 398/398/398
f 381/381/381 399/399/399 398/398/398
f 381/381/381 382/382/382 399/399/399
f 382/382/382 400/400/400 399/399/399
f 382/382/382 383/383/383 400/400/400
f 383/383/383 401/401/401 400/400/400
f 383/383/383 384/384/384 401/401/401
f 384/384/384 402/402/402 401/401/401
f 384/384/384 385/385/385 402/402/402
f 385/385/385 403/403/403 402/402/402
f 385/385/385 386/386/386 403/403/403
f 386/386/386 404/404/404 403/403/403
f 386/386/386 387/387/387 404/404/404
f 387/387/387 405/405/405 404/404/404
f 387/387/387 388/388/388 405/405/405
f 388/388/388 406/406/406 405/405/405
f 388/388/388 389/389/389 406/406/406
f 389/389/389 407/407/407 406/406/406
f 389/389/389 390/390/390 407/407/407
f 390/390/390 408/408/408 407/407/407
f 390/390/390 391/391/391 408/408/408
f 392/392/392 410/410/410 409/409/409
f 392/392/392 393/393/393 410/410/410
f 393/393/393 411/411/411 410/410/410
f 393/393/393 394/394/394 411/411/411
f 394/394/394 412/412/412 411/411/411
f 394/394/394 395/395/395 412/412/412
f 395/395/395 413/413/413 412/412/412
f 395/395/395 396/396/396 413/413/413
f 396/396/396 414/414/414 413/413/413
f 396/396/396 397/397/397 414/414/414
f 397/397/397 415/415/415 414/414/414
f 397/397/397 398/398/398 415/415/415
f 398/398/398 416/416/416 415/415/415
f 398/398/398 399/399/399 416/416/416
f 399/399/399 417/417/417 416/416/416
f 399/399/399 400/400/400 417/417/417
f 400/400/400 418/418/418 417/417/417
f 400/400/400 401/401/401 418/418/418
f 401/401/401 419/419/419 418/418/418
f 401/401/401 402/402/402 419/419/419
f 402/402/402 420/420/420 419/419/419
f 402/402/402 403/403/403 420/420/420
f 403/403/403 421/421/421 420/420/420
f 403/403/403 404/404/404 421/421/421
f 404/404/404 422/422/422 421/421/421
f 404/404/404 405/405/405 422/422/422
f 405/405/405 423/423/423 422/422/422
f 405/405/405 406/406/406 423/423/423
f 406/406/406 424/424/424 423/423/423
f 406/406/406 407/407/407 424/424/424
f 407/407/407 425/425/425 424/424/424
f 407/407/407 408/408/408 425/425/425
f 409/409/409 427/427/427 426/426/426
f 409/409/409 410/410/410 427/427/427
f 410/410/410 428/428/428 427/427/427
f 410/410/410 411/411/411 428/428/428
f 411/411/411 429/429/429 428/428/428
f 411/411/411 412/412/412 429/429/429
f 412/412/412 430/430/430 429/429/429
f 412/412/412 413/413/413 430/430/430
f 413/413/413 431/431/431 430/430/430
f 413/413/413 414/414/414 431/431/431
f 414/414/414 432/432/432 431/431/431
f 414/414/414 415/415/415 432/432/432
f 415/415/415 433/433/433 432/432/432
f 415/415/415 416/416/416 433/433/433
f 416/416/416 434/434/434 433/433/433
f 416/416/416 417/417/417 434/434/434
f 417/417/417 435/435/435 434/434/434
f 417/417/417 418/418/418 435/435/435
f 418/418/418 436/436/436 435/435/435
f 418/418/418 419/419/419 436/436/436
f 419/419/419 437/437/437 436/436/436
f 419/419/419 420/420/420 437/437/437
f 420/420/420 438/438/438 437/437/437
f 420/420/420 421/421/421 438/438/438
f 421/421/421 439/439/439 438/438/438
f 421/421/421 422/422/422 439/439/439
f 422/422/422 440/440/440 439/439/439
f 422/422/422 423/423/423 440/440/440
f 423/423/423 441/441/441 440/440/440
f 423/423/423 424/424/424 441/441/441
f 424/424/424 442/442/442 441/441/441
f 424/424/424 425/425/425 442/442/442
f 426/426/426 444/444/444 443/443/443
f 426/426/426 427/427/427 444/444/444
f 427/427/427 445/445/445 444/444/444
f 427/427/427 428/428/428 445/445/445
f 428/428/428 446/446/446 445/445/445
f 428/428/428 429/429/429 446/446/446
f 429/429/429 447/447/447 446/446/446
f 429/429/429 430/430/430 447/447/447
f 430/430/430 448/448/448 447/447/447
f 430/430/430 431/431/431 448/448/448
f 431/431/431 449/449/449 448/448/448
f 431/431/431 432/432/432 449/449/449
f 432/432/432 450/450/450 449/449/449
f 432/432/432 433/433/433 450/450/450
f 433/433/433 451/451/451 450/450/450
f 433/433/433 434/434/434 451/451/451
f 434/434/434 452/452/452 451/451/451
f 434/434/434 435/435/435 452/452/452
f 435/435/435 453/453/453 452/452/452
f 435/435/435 436/436/436 453/453/453
f 436/436/436 454/454/454 453/453/453
f 436/436/436 437/437/437 454/454/454
f 437/437/437 455/455/455 454/454/454
f 437/437/437 438/438/438 455/455/455
f 438/438/438 456/456/456 455/455/455
f 438/438/438 439/439/439 456/456/456
f 439/439/439 457/457/457 456/456/456
f 439/439/439 440/440/440 457/457/457
f 440/440/440 458/458/458 457/457/457
f 440/440/440 441/441/441 458/458/458
f 441/441/441 459/459/459 458/458/458
f 441/441/441 442/442/442 459/459/459
f 443/443/443 461/461/461 460/460/460
f 443/443/443 444/444/444 461/461/461
f 444/444/444 462/462/462 461/461/461
f 444/444/444 445/445/445 462/462/462
f 445/445/445 463/463/463 462/462/462
f 445/445/445 446/446/446 463/463/463
f 446/446/446 464/464/464 463/463/463
f 446/446/446 447/447/447 464/464/464
f 447/447/447 465/465/465 464/464/464
f 447/447/447 448/448/448 465/465/465
f 448/448/448 466/466/466 465/465/465
f 448/448/448 449/449/449 466/466/466
f 449/449/449 467/467/467 466/466/466
f 449/449/449 450/450/450 467/467/467
f 450/450/450 468/468/468 467/467/467
f 450/450/450 451/451/451 468/468/468
f 451/451/451 469/469/469 468/468/468
f 451/451/451 452/452/452 469/469/469
f 452/452/452 470/470/470 469/469/469
f 452/452/452 453/453/453 470/470/470
f 453/453/453 471/471/471 470/470/470
f 453/453/453 454/454/454 471/471/471
f 454/454/454 472/472/472 471/471/471
f 454/454/454 455/455/455 472/472/472
f 455/455/455 473/473/473 472/472/472
f 455/455/455 456/456/456 473/473/473
f 456/456/456 474/474/474 473/473/473
f 456/456/456 457/457/457 474/474/474
f 457/457/457 475/475/475 474/474/474
f 457/457/457 458/458/458 475/475/475
f 458/458/458 476/476/476 475/475/475
f 458/458/458 459/459/459 476/476/476
f 460/460/460 478/478/478 477/477/477
f 460/460/460 461/461/461 478/478/478
f 461/461/461 479/479/479 478/478/478
f 461/461/461 462/462/462 479/479/479
f 462/462/462 480/480/480 479/479/479
f 462/462/462 463/463/463 480/480/480
f 463/463/463 481/481/481 480/480/480
f 463/463/463 464/464/464 481/481/481
f 464/464/464 482/482/482 481/481/481
f 464/464/464 465/465/465 482/482/482
f 465/465/465 483/483/483 482/482/482
f 465/465/465 466/466/466 483/483/483
f 466/466/466 484/484/484 483/483/483
f 466/466/466 467/467/467 484/484/484
f 467/467/467 485/485/485 484/484/484
f 467/467/467 468/468/468 485/485/485
f 468/468/468 486/486/486 485/485/485
f 468/468/468 469/469/469 486/486/486
f 469/469/469 487/487/487 486/486/486
f 469/469/469 470/470/470 487/487/487
f 470/470/470 488/488/488 487/487/487
f 470/470/470 471/471/471 488/488/488
f 471/471/471 489/489/489 488/488/488
f 471/471/471 472/472/472 489/489/489
f 472/472/472 490/490/490 489/489/489
f 472/472/472 473/473/473 490/490/490
f 473/473/473 491/491/491 490/490/490
f 473/473/473 474/474/474 491/491/491
f 474/474/474 492/492/492 491/491/491
f 474/474/474 475/475/475 492/492/492
f 475/475/475 493/493/493 492/492/492
f 475/475/475 476/476/476 493/493/493
f 477/477/477 495/495/495 494/494/494
f 477/477/477 478/478/478 495/495/495
f 478/478/478 496/496/496 495/495/495
f 478/478/478 479/479/479 496/496/496
f 479/479/479 497/497/497 496/496/496
f 479/479/479 480/480/480 497/497/497
f 480/480/480 498/498/498 497/497/497
f 480/480/480 481/481/481 498/498/498
f 481/481/481 499/499/499 498/498/498
f 481/481/481 482/482/482 499/499/499
f 482/482/482 500/500/500 499/499/499
f 482/482/482 483/483/483 500/500/500
f 483/483/483 501/501/501 500/500/500
f 483/483/483 484/484/484 501/501/501
f 484/484/484 502/502/502 501/501/501
f 484/484/484 485/485/485 502/502/502
f 485/485/485 503/503/503 502/502/502
f 485/485/485 486/486/486 503/503/503
f 486/486/486 504/504/504 503/503/503
f 486/486/486 487/487/487 504/504/504
f 487/487/487 505/505/505 504/504/504
f 487/487/487 488/488/488 505/505/505
f 488/488/488 506/506/506 505/505/505
f 488/488/488 489/489/489 506/506/506
f 489/489/489 507/507/507 506/506/506
f 489/489/489 490/490/490 507/507/507
f 490/490/490 508/508/508 507/507/507
f 490/490/490 491/491/491 508/508/508
f 491/491/491 509/509/509 508/508/508
f 491/491/491 492/492/492 509/509/509
f 492/492/492 510/510/510 509/509/509
f 492/492/492 493/493/493 510/510/510
f 494/494/494 512/512/512 511/511/511
f 494/494/494 495/495/495 512/512/512
f 495/495/495 513/513/513 512/512/512
f 495/495/495 496/496/496 513/513/513
f 496/496/496 514/514/514 513/513/513
f 496/496/496 497/497/497 514/514/514
f 497/497/497 515/515/515 514/514/514
f 497/497/497 498/498/498 515/515/515
f 498/498/498 516/516/516 515/515/515
f 498/498/498 499/499/499 516/516/516
f 499/499/499 517/517/517 516/516/516
f 499/499/499 500/500/500 517/517/517
f 500/500/500 518/518/518 517/517/517
f 500/500/500 501/501/501 518/518/518
f 501/501/501 519/519/519 518/518/518
f 501/501/501 502/502/502 519/519/519
f 502/502/502 520/520/520 519/519/519
f 502/502/502 503/503/503 520/520/520
f 503/503/503 521/521/521 520/520/520
f 503/503/503 504/504/504 521/521/521
f 504/504/504 522/522/522 521/521/521
f 504/504/504 505/505/505 522/522/522
f 505/505/505 523/523/523 522/522/522
f 505/505/505 506/506/506 523/523/523
f 506/506/506 524/524/524 523/523/523
f 506/506/506 507/507/507 524/524/524
f 507/507/507 525/525/525 524/524/524
f 507/507/507 508/508/508 525/525/525
f 508/508/508 526/526/526 525/525/525
f 508/508/508 509/509/509 526/526/526
f 509/509/509 527/527/527 526/526/526
f 509/509/509 510/510/510 527/527/527
f 511/511/511 529/529/529 528/528/528
f 511/511/511 512/512/512 529/529/529
f 512/512/512 530/530/530 529/529/529
f 512/512/512 513/513/513 530/530/530
f 513/513/513 531/531/531 530/530/530
f 513/513/513 514/514/514 531/531/531
f 514/514/514 532/532/532 531/531/531
f 514/514/514 515/515/515 532/532/532
f 515/515/515 533/533/533 532/532/532
f 515/515/515 516/516/516 533/533/533
f 516/516/516 534/534/534 533/533/533
f 516/516/516 517/517/517 534/534/534
f 517/517/517 535/535/535 534/534/534
f 517/517/517 518/518/518 535/535/535
f 518/518/518 536/536/536 535/535/535
f 518/518/518 519/519/519 536/536/536
f 519/519/519 537/537/537 536/536/536
f 519/519/519 520/520/520 537/537/537
f 520/520/520 538/538/538 537/537/537
f 520/520/520 521/521/521 538/538/538
f 521/521/521 539/539/539 538/538/538
f 521/521/521 522/522/522 539/539/539
f 522/522/522 540/540/540 539/539/539
f 522/522/522 523/523/523 540/540/540
f 523/523/523 541/541/541 540/540/540
f 523/523/523 524/524/524 541/541/541
f 524/524/524 542/542/542 541/541/541
f 524/524/524 525/525/525 542/542/542
f 525/525/525 543/543/543 542/542/542
f 525/525/525 526/526/526 543/543/543
f 526/526/526 544/544/544 543/543/543
f 526/526/526 527/527/527 544/544/544
f 528/528/528 546/546/546 545/545/545
f 528/528/528 529/529/529 546/546/546
f 529/529/529 547/547/547 546/546/546
f 529/529/529 530/530/530 547/547/547
f 530/530/530 548/548/548 547/547/547
f 530/530/530 531/531/531 548/548/548
f 531/531/531 549/549/549 548/548/548
f 531/531/531 532/532/532 549/549/549
f 532/532/532 550/550/550 549/549/549
f 532/532/532 533/533/533 550/550/550
f 533/533/533 551/551/551 550/550/550
f 533/533/533 534/534/534 551/551/551
f 534/534/534 552/552/552 551/551/551
f 534/534/534 535/535/535 552/552/552
f 535/535/535 553/553/553 552/552/552
f 535/535/535 536/536/536 553/553/553
f 536/536/536 554/554/554 553/553/553
f 536/536/536 537/537/537 554/554/554
f 537/537/537 555/555/555 554/554/554
f 537/537/537 538/538/538 555/555/555
f 538/538/538 556/556/556 555/555/555
f 538/538/538 539/539/539 556/556/556
f 539/539/539 557/557/557 556/556/556
f 539/539/539 540/540/540 557/557/557
f 540/540/540 558/558/558 557/557/557
f 540/540/540 541/541/541 558/558/558
f 541/541/541 559/559/559 558/558/558
f 541/541/541 542/542/542 559/559/559
f 542/542/542 560/560/560 559/559/559
f 542/542/542 543/543/543 560/560/560
f 543/543/543 561/561/561 560/560/560
f 543/543/543 544/544/544 561/561/561
